<?xml version="1.0" standalone="no"?>
<!DOCTYPE svg PUBLIC "-//W3C//DTD SVG 1.1//EN" "http://www.w3.org/Graphics/SVG/1.1/DTD/svg11.dtd" >
<svg xmlns="http://www.w3.org/2000/svg" xmlns:xlink="http://www.w3.org/1999/xlink" version="1.1">
<metadata>
Created by FontForge 20190801 at Thu Mar 30 08:48:52 2017
 By Unknown
(c) 2017 Connary Fagen
</metadata>
<defs>
<font id="IntegralCF-Bold" horiz-adv-x="1016" >
  <font-face 
    font-family="Integral CF Bold"
    font-weight="700"
    font-stretch="normal"
    units-per-em="1200"
    panose-1="0 0 8 0 0 0 0 0 0 0"
    ascent="960"
    descent="-240"
    x-height="840"
    cap-height="840"
    bbox="-289 -470 1615 1109"
    underline-thickness="50"
    underline-position="-150"
    unicode-range="U+0020-25CA"
  />
<missing-glyph horiz-adv-x="525" 
d="M431 -150h-333v1050h333v-1050zM176 830v-35h69v-39h-70v-34h175v34h-70v39h70v35h-174zM175 694v-109h175v36h-70v73h-105zM245 621h-35v38h35v-38zM175 557v-35h70v-39h-70v-34h105v73h70v35h-175zM315 494v-70h-140v-35h175v105h-35zM245 366v-59h35v24h35v-49h-105
v84h-35v-119h175v119h-105zM175 184v-119h175v119h-175zM315 100h-105v49h105v-49zM175 41v-35h74l-74 -49v-35h175v35h-107l73 49h34v35h-175z" />
    <glyph glyph-name=".notdef" horiz-adv-x="525" 
d="M431 -150h-333v1050h333v-1050zM176 830v-35h69v-39h-70v-34h175v34h-70v39h70v35h-174zM175 694v-109h175v36h-70v73h-105zM245 621h-35v38h35v-38zM175 557v-35h70v-39h-70v-34h105v73h70v35h-175zM315 494v-70h-140v-35h175v105h-35zM245 366v-59h35v24h35v-49h-105
v84h-35v-119h175v119h-105zM175 184v-119h175v119h-175zM315 100h-105v49h105v-49zM175 41v-35h74l-74 -49v-35h175v35h-107l73 49h34v35h-175z" />
    <glyph glyph-name=".null" horiz-adv-x="0" 
 />
    <glyph glyph-name="nonmarkingreturn" horiz-adv-x="400" 
 />
    <glyph glyph-name="space" unicode=" " horiz-adv-x="260" 
 />
    <glyph glyph-name="exclam" unicode="!" horiz-adv-x="346" 
d="M30 840h286l-54 -522h-178zM104.5 2.5q-31.5 18.5 -50.5 50t-19 67.5t19 67.5t50.5 50t68.5 18.5t68.5 -18.5t50.5 -50t19 -67.5t-19 -67.5t-50.5 -50t-68.5 -18.5t-68.5 18.5z" />
    <glyph glyph-name="quotedbl" unicode="&#x22;" horiz-adv-x="625" 
d="M335 840h240l-19 -374h-202zM50 840h240l-19 -374h-202z" />
    <glyph glyph-name="numbersign" unicode="#" horiz-adv-x="848" 
d="M711 486v-118h107v-201h-107v-167h-229v167h-116v-167h-229v167h-107v201h107v118h-107v187h107v167h229v-167h116v167h229v-167h107v-187h-107zM482 486h-116v-118h116v118z" />
    <glyph glyph-name="dollar" unicode="$" horiz-adv-x="787" 
d="M681 108q-88 -58 -247 -66v-60h-86v60q-156 7 -244 70t-89 190h244q1 -36 25 -52.5t64 -20.5v116q-96 16 -158.5 33.5t-113 63t-50.5 126.5q0 102 86.5 162.5t235.5 66.5v66h86v-67q312 -19 307 -261h-238q-1 36 -18.5 54t-50.5 23v-117q97 -10 164 -26.5t119 -63
t52 -132.5q0 -107 -88 -165zM348 509v105q-70 -9 -70 -50q0 -37 70 -55zM513 277q0 17 -17.5 29t-61.5 22v-99q79 6 79 48z" />
    <glyph glyph-name="percent" unicode="%" horiz-adv-x="1166" 
d="M254 49l542 825l116 -78l-542 -825zM102 468q-57 63 -57 161q0 97 57 160t171 63t171 -63t57 -160q0 -98 -57 -161t-171 -63t-171 63zM313.5 591q13.5 16 13.5 38t-13.5 37.5t-40.5 15.5t-40.5 -15.5t-13.5 -37.5t13.5 -38t40.5 -16t40.5 16zM721 51q-57 63 -57 161
q0 97 57 160t171 63t171 -63t57 -160q0 -98 -57 -161t-171 -63t-171 63zM932.5 174q13.5 16 13.5 38t-13.5 37.5t-40.5 15.5t-40.5 -15.5t-13.5 -37.5t13.5 -38t40.5 -16t40.5 16z" />
    <glyph glyph-name="ampersand" unicode="&#x26;" horiz-adv-x="1026" 
d="M888 -23l-102 73q-131 -78 -326 -78q-133 0 -231 34t-151 97t-53 148q0 76 43 136.5t134 95.5q-64 69 -64 147q0 61 41 114t122 85.5t195 32.5q175 0 275.5 -78t99.5 -243h-241q1 66 -35.5 91.5t-98.5 25.5q-51 0 -77.5 -15t-26.5 -42q0 -15 10.5 -28.5t35 -32.5
t86.5 -64l204 -145q25 54 23 115h243q-3 -150 -68 -257l75 -53zM580 199l-236 170q-42 -28 -42 -74q0 -55 53 -82t133 -27q48 0 92 13z" />
    <glyph glyph-name="quotesingle" unicode="'" horiz-adv-x="340" 
d="M50 840h240l-19 -374h-202z" />
    <glyph glyph-name="parenleft" unicode="(" horiz-adv-x="560" 
d="M192.5 -52.5q-111.5 92.5 -142 213t-30.5 259.5q0 138 30.5 258t142 212.5t332.5 92.5v-227q-104 0 -158.5 -42t-72.5 -113.5t-18 -180.5q0 -110 18 -182t72.5 -114t158.5 -42v-227q-221 0 -332.5 92.5z" />
    <glyph glyph-name="parenright" unicode=")" horiz-adv-x="560" 
d="M35 82q104 0 158.5 42t72.5 114t18 182q0 109 -18 180.5t-72.5 113.5t-158.5 42v227q221 0 332.5 -92.5t142 -212.5t30.5 -258q0 -139 -30.5 -259.5t-142 -213t-332.5 -92.5v227z" />
    <glyph glyph-name="asterisk" unicode="*" horiz-adv-x="658" 
d="M463 563l145 -69l-80 -139l-131 91l12 -160h-160l12 160l-131 -91l-80 139l145 69l-145 69l80 139l131 -90l-12 159h160l-12 -159l131 90l80 -139z" />
    <glyph glyph-name="plus" unicode="+" horiz-adv-x="808" 
d="M758 311h-239v-238h-231v238h-238v219h238v239h231v-239h239v-219z" />
    <glyph glyph-name="comma" unicode="," horiz-adv-x="386" 
d="M139 0h-109v231h326v-51q0 -157 -18.5 -266t-41.5 -152h-170q15 105 13 238z" />
    <glyph glyph-name="hyphen" unicode="-" horiz-adv-x="660" 
d="M40 531h580v-231h-580v231z" />
    <glyph glyph-name="period" unicode="." horiz-adv-x="346" 
d="M104.5 2.5q-31.5 18.5 -50.5 50t-19 67.5t19 67.5t50.5 50t68.5 18.5t68.5 -18.5t50.5 -50t19 -67.5t-19 -67.5t-50.5 -50t-68.5 -18.5t-68.5 18.5z" />
    <glyph glyph-name="slash" unicode="/" horiz-adv-x="724" 
d="M398 840h316l-388 -840h-316z" />
    <glyph glyph-name="zero" unicode="0" horiz-adv-x="894" 
d="M131 92q-111 114 -111 328t111 328t316 114t316 -114t111 -328t-111 -328t-316 -114t-316 114zM562 264.5q39 53.5 39 155.5t-39 155.5t-115 53.5t-115 -53.5t-39 -155.5t39 -155.5t115 -53.5t115 53.5z" />
    <glyph glyph-name="one" unicode="1" horiz-adv-x="765" 
d="M725 210v-210h-685v210h230v365q-41 -34 -93.5 -45.5t-116.5 -11.5v232q115 0 210 90h277v-630h178z" />
    <glyph glyph-name="two" unicode="2" horiz-adv-x="816" 
d="M754 454q-37 -52 -90 -79.5t-137 -57.5q-76 -28 -117.5 -50t-60.5 -57h439v-210h-763v125q0 104 50 170.5t118.5 102t169.5 71.5q57 21 87.5 34.5t50.5 31t20 40.5q0 67 -98 67q-122 0 -120 -91h-270q0 153 95.5 232t282.5 79q182 0 281 -69.5t99 -203.5q0 -83 -37 -135z
" />
    <glyph glyph-name="three" unicode="3" horiz-adv-x="847" 
d="M118.5 50q-94.5 72 -93.5 231h248q3 -48 36.5 -66.5t97.5 -18.5q68 0 104.5 18t36.5 52q0 29 -30 55.5t-115 26.5h-46v156h46q84 0 113 23t29 50q0 34 -34 50.5t-92 16.5q-62 0 -95.5 -20.5t-33.5 -67.5h-246q-1 156 94.5 231t282.5 75q183 0 278.5 -63.5t95.5 -173.5
q0 -66 -32 -108.5t-88 -69.5v-14q66 -20 106.5 -71.5t40.5 -129.5q0 -79 -49 -136.5t-141.5 -87.5t-218.5 -30q-200 0 -294.5 72z" />
    <glyph glyph-name="four" unicode="4" horiz-adv-x="915" 
d="M885 352v-210h-127v-142h-277v142h-446v210l398 488h325v-488h127zM481 352v253l-206 -253h206z" />
    <glyph glyph-name="five" unicode="5" horiz-adv-x="825" 
d="M120 52q-93 74 -90 223h246q7 -42 40.5 -61.5t85.5 -19.5q70 0 104.5 30t34.5 75q0 46 -32.5 73.5t-97.5 27.5q-51 0 -80 -15.5t-49 -38.5h-244l95 494h596v-209h-391l-24 -114q24 17 68 29t110 12q85 0 155 -30.5t111.5 -92.5t41.5 -151q0 -144 -101.5 -225t-294.5 -81
q-191 0 -284 74z" />
    <glyph glyph-name="six" unicode="6" horiz-adv-x="822" 
d="M708.5 471.5q93.5 -66.5 93.5 -201.5q0 -89 -43 -154.5t-129 -101.5t-211 -36q-220 0 -309.5 121t-89.5 325q0 230 113 334t296 104q169 0 264.5 -70.5t91.5 -209.5h-220q-8 39 -45.5 56.5t-90.5 17.5q-66 0 -109 -33t-40 -119q63 34 186 34q149 0 242.5 -66.5z
M517 208.5q36 26.5 36 68.5q0 43 -35.5 68t-101.5 25t-100 -24t-34 -69q0 -42 34.5 -68.5t99.5 -26.5t101 26.5z" />
    <glyph glyph-name="seven" unicode="7" horiz-adv-x="779" 
d="M759 840v-223l-406 -617h-292l408 617h-444v223h734z" />
    <glyph glyph-name="eight" unicode="8" horiz-adv-x="858" 
d="M120 53q-95 75 -95 191q0 144 144 218v16q-38 23 -60.5 65.5t-22.5 90.5q0 67 37.5 118t114.5 80.5t191 29.5t191.5 -29.5t115.5 -80.5t38 -118q0 -48 -23.5 -90t-61.5 -66v-16q144 -74 144 -218q0 -116 -95 -191t-309 -75t-309 75zM505 548.5q25 18.5 25 52.5
q0 35 -26 54t-75 19t-75 -19t-26 -54q0 -34 25 -52.5t76 -18.5t76 18.5zM532.5 211.5q31.5 25.5 31.5 67.5q0 41 -32 67t-103 26t-103 -26t-32 -67q0 -42 31.5 -67.5t103.5 -25.5t103.5 25.5z" />
    <glyph glyph-name="nine" unicode="9" horiz-adv-x="822" 
d="M712.5 741q89.5 -121 89.5 -325q0 -230 -113 -334t-296 -104q-169 0 -264.5 70.5t-91.5 209.5h220q8 -39 45.5 -56.5t90.5 -17.5q66 0 109 33t40 119q-63 -34 -186 -34q-149 0 -242.5 66.5t-93.5 201.5q0 89 43 154.5t129 101.5t211 36q220 0 309.5 -121zM506 494
q34 24 34 69q0 42 -34.5 68.5t-99.5 26.5t-101 -26.5t-36 -68.5q0 -43 35.5 -68t101.5 -25t100 24z" />
    <glyph glyph-name="colon" unicode=":" horiz-adv-x="346" 
d="M104.5 84.5q-31.5 18.5 -50.5 50t-19 67.5t19 67.5t50.5 50t68.5 18.5t68.5 -18.5t50.5 -50t19 -67.5t-19 -67.5t-50.5 -50t-68.5 -18.5t-68.5 18.5zM104.5 510.5q-31.5 18.5 -50.5 50t-19 67.5t19 67.5t50.5 50t68.5 18.5t68.5 -18.5t50.5 -50t19 -67.5t-19 -67.5
t-50.5 -50t-68.5 -18.5t-68.5 18.5z" />
    <glyph glyph-name="semicolon" unicode=";" horiz-adv-x="396" 
d="M144 90h-109v231h326v-51q0 -157 -18.5 -266t-41.5 -152h-170q15 105 13 238zM134.5 510.5q-31.5 18.5 -50.5 50t-19 67.5t19 67.5t50.5 50t68.5 18.5t68.5 -18.5t50.5 -50t19 -67.5t-19 -67.5t-50.5 -50t-68.5 -18.5t-68.5 18.5z" />
    <glyph glyph-name="less" unicode="&#x3c;" horiz-adv-x="708" 
d="M50 260v316l608 196v-237l-402 -104v-26l402 -104v-233z" />
    <glyph glyph-name="equal" unicode="=" horiz-adv-x="728" 
d="M50 678h628v-231h-628v231zM50 394h628v-231h-628v231z" />
    <glyph glyph-name="greater" unicode="&#x3e;" horiz-adv-x="728" 
d="M70 301l402 104v26l-402 104v237l608 -196v-316l-608 -192v233z" />
    <glyph glyph-name="question" unicode="?" horiz-adv-x="800" 
d="M269 345q0 51 21.5 82t51.5 47t77 33q48 17 69.5 31t21.5 41q0 28 -31 45.5t-80 17.5q-55 0 -94.5 -23.5t-39.5 -85.5h-250q-7 165 92.5 247t289.5 82q181 0 284.5 -62t103.5 -189q0 -59 -20.5 -95.5t-49 -56t-75.5 -40.5q-35 -15 -55 -27.5t-34 -32t-14 -49.5h-266
q-2 12 -2 35zM334.5 2.5q-31.5 18.5 -50.5 50t-19 67.5t19 67.5t50.5 50t68.5 18.5t68.5 -18.5t50.5 -50t19 -67.5t-19 -67.5t-50.5 -50t-68.5 -18.5t-68.5 18.5z" />
    <glyph glyph-name="at" unicode="@" horiz-adv-x="974" 
d="M817 86q-59 -53 -144 -83.5t-186 -30.5q-138 0 -244 57t-164.5 159t-58.5 232t58.5 232t164.5 159t244 57q137 0 243.5 -57.5t165 -157t58.5 -221.5q0 -74 -39 -110t-113 -36q-124 0 -116 108l23 248h-85l-19 -44h-13q-23 26 -55 42t-89 16q-58 0 -107.5 -28.5t-79 -83
t-29.5 -127.5q0 -74 29.5 -128.5t80 -83.5t112.5 -29q53 0 92.5 21t61.5 58h13q19 -36 58.5 -57.5t94.5 -21.5q40 0 75 9.5t52 21.5l2 -2q-27 -66 -86 -119zM538 512q29 -36 29 -97q0 -60 -29 -95.5t-77 -35.5q-49 0 -79.5 35t-30.5 96t30.5 97t79.5 36q48 0 77 -36z" />
    <glyph glyph-name="A" unicode="A" 
d="M688 111h-360l-37 -111h-286l309 840h388l309 -840h-286zM620 316l-88 264h-48l-88 -264h224z" />
    <glyph glyph-name="B" unicode="B" horiz-adv-x="924" 
d="M866 353.5q33 -47.5 33 -116.5q0 -109 -85.5 -173t-272.5 -64h-506v840h520q175 0 248.5 -63t73.5 -160q0 -65 -28 -102.5t-80 -65.5v-16q64 -32 97 -79.5zM312 628v-126h214q45 0 65.5 18t20.5 44q0 27 -20.5 45.5t-65.5 18.5h-214zM597.5 233.5q21.5 21.5 21.5 49.5
t-21 48t-66 20h-220v-139h220q44 0 65.5 21.5z" />
    <glyph glyph-name="C" unicode="C" horiz-adv-x="955" 
d="M245 28q-107 56 -166 157.5t-59 234.5t59 234.5t166 157.5t247 56q111 0 206 -36t159.5 -119.5t77.5 -218.5h-264q-17 68 -63 101.5t-116 33.5q-55 0 -100 -26t-71 -73.5t-26 -109.5t26 -109.5t71 -73.5t100 -26q70 0 116 34t63 103h264q-19 -199 -143 -287.5t-300 -88.5
q-140 0 -247 56z" />
    <glyph glyph-name="D" unicode="D" horiz-adv-x="944" 
d="M809.5 727.5q109.5 -112.5 109.5 -307.5t-109.5 -307.5t-352.5 -112.5h-422v840h422q243 0 352.5 -112.5zM591.5 278q49.5 46 49.5 142q0 97 -49 142.5t-135 45.5h-144v-376h144q85 0 134.5 46z" />
    <glyph glyph-name="E" unicode="E" horiz-adv-x="827" 
d="M35 840h757v-222h-480v-107h462v-182h-462v-107h480v-222h-757v840z" />
    <glyph glyph-name="F" unicode="F" horiz-adv-x="825" 
d="M35 840h755v-231h-478v-114h457v-200h-457v-295h-277v840z" />
    <glyph glyph-name="G" unicode="G" horiz-adv-x="979" 
d="M939 0h-148l-4 111q-46 -63 -125.5 -101t-185.5 -38q-129 0 -233 56t-163.5 158t-59.5 234q0 133 59 234.5t168 157.5t253 56q104 0 197.5 -34.5t157.5 -107t80 -180.5h-275q-14 34 -55 58.5t-99 24.5q-62 0 -109.5 -26t-74.5 -73t-27 -110q0 -62 26.5 -109.5t73 -73.5
t103.5 -26q51 0 103.5 22.5t70.5 86.5h-185v144h452v-464z" />
    <glyph glyph-name="H" unicode="H" horiz-adv-x="950" 
d="M915 840v-840h-277v304h-326v-304h-277v840h277v-304h326v304h277z" />
    <glyph glyph-name="I" unicode="I" horiz-adv-x="347" 
d="M35 840h277v-840h-277v840z" />
    <glyph glyph-name="J" unicode="J" horiz-adv-x="830" 
d="M121.5 52q-99.5 80 -96.5 276h276q-1 -121 108 -121t109 145v488h277v-474q0 -145 -46 -232t-132 -124.5t-214 -37.5q-182 0 -281.5 80z" />
    <glyph glyph-name="K" unicode="K" horiz-adv-x="946" 
d="M668 0l-224 299h-18l-115 -123v-176h-276v840h276v-333h18l303 333h308l-341 -374l352 -466h-283z" />
    <glyph glyph-name="L" unicode="L" horiz-adv-x="795" 
d="M35 840h277v-609h448v-231h-725v840z" />
    <glyph glyph-name="M" unicode="M" horiz-adv-x="1062" 
d="M35 840h349l137 -479h20l137 479h349v-840h-264v372h-22l-107 -372h-206l-107 372h-22v-372h-264v840z" />
    <glyph glyph-name="N" unicode="N" horiz-adv-x="962" 
d="M35 840h318l279 -454h25v454h270v-840h-311l-286 454h-25v-454h-270v840z" />
    <glyph glyph-name="O" unicode="O" horiz-adv-x="992" 
d="M245 28q-108 56 -166.5 157.5t-58.5 234.5t58.5 234.5t166.5 157.5t251 56t251 -56t166.5 -157.5t58.5 -234.5t-58.5 -234.5t-166.5 -157.5t-251 -56t-251 56zM597.5 236q45.5 25 72.5 72t27 112t-27 112t-72.5 72t-101.5 25t-101.5 -25t-72.5 -72t-27 -112t27 -112
t72.5 -72t101.5 -25t101.5 25z" />
    <glyph glyph-name="P" unicode="P" horiz-adv-x="902" 
d="M35 840h477q176 0 270.5 -81t94.5 -247t-94.5 -247t-269.5 -81h-201v-184h-277v840zM488 414q51 0 80.5 25t29.5 73t-29 73t-80 25h-177v-196h176z" />
    <glyph glyph-name="Q" unicode="Q" horiz-adv-x="992" 
d="M856 152l110 -112q-62 -81 -154 -157l-137 125q-91 -36 -179 -36q-143 0 -251 56t-166.5 157.5t-58.5 234.5t58.5 234.5t166.5 157.5t251 56q142 0 250 -55.5t167 -154.5t59 -228q0 -160 -116 -278zM322 308q27 -47 72.5 -72t101.5 -25t101.5 25t72.5 72t27 112t-27 112
t-72.5 72t-101.5 25t-101.5 -25t-72.5 -72t-27 -112t27 -112z" />
    <glyph glyph-name="R" unicode="R" horiz-adv-x="928" 
d="M636 0l-114 217h-210v-217h-277v840h481q178 0 271 -79t93 -242q0 -81 -32.5 -142t-89.5 -101l150 -276h-272zM312 424h185q52 0 79 24t27 69t-27 69t-79 24h-185v-186z" />
    <glyph glyph-name="S" unicode="S" horiz-adv-x="883" 
d="M113.5 45q-103.5 73 -98.5 236h249q2 -45 44 -69t132 -24q74 0 112 19t38 49q0 24 -20.5 41.5t-76.5 25.5l-108 17l-24 4q-104 16 -169 36.5t-111 72.5t-46 147q0 127 102.5 197.5t299.5 70.5t302.5 -69t101.5 -238h-247q-16 91 -163 91q-66 0 -98 -18t-32 -48
q0 -22 17.5 -39t61.5 -24l89 -15l57 -9q108 -16 175.5 -36t115.5 -71.5t48 -146.5q0 -273 -425 -273q-223 0 -326.5 73z" />
    <glyph glyph-name="T" unicode="T" horiz-adv-x="941" 
d="M911 609h-302v-609h-277v609h-302v231h881v-231z" />
    <glyph glyph-name="U" unicode="U" horiz-adv-x="940" 
d="M143 68q-108 96 -108 298v474h279v-467q0 -81 38 -125t118 -44t119 44t39 125v467h277v-472q0 -203 -108 -299.5t-327 -96.5t-327 96z" />
    <glyph glyph-name="V" unicode="V" 
d="M5 840h286l202 -580h30l202 580h286l-309 -840h-388z" />
    <glyph glyph-name="W" unicode="W" horiz-adv-x="1290" 
d="M20 840h281l90 -544h24l120 544h220l120 -544h24l90 544h281l-163 -840h-374l-76 404h-24l-76 -404h-374z" />
    <glyph glyph-name="X" unicode="X" horiz-adv-x="930" 
d="M291 419v14l-284 407h298l147 -225h26l147 225h298l-282 -407v-14l289 -419h-301l-151 236h-26l-151 -236h-301z" />
    <glyph glyph-name="Y" unicode="Y" horiz-adv-x="964" 
d="M620 261v-261h-277v262l-343 578h291l180 -316h22l180 316h291z" />
    <glyph glyph-name="Z" unicode="Z" horiz-adv-x="830" 
d="M20 223l430 365v21h-420v231h780v-223l-436 -365v-21h430v-231h-784v223z" />
    <glyph glyph-name="bracketleft" unicode="[" horiz-adv-x="558" 
d="M35 975h488v-231h-211v-648h211v-231h-488v1110z" />
    <glyph glyph-name="backslash" unicode="\" horiz-adv-x="724" 
d="M398 0l-388 840h316l388 -840h-316z" />
    <glyph glyph-name="bracketright" unicode="]" horiz-adv-x="558" 
d="M35 -135v231h211v648h-211v231h488v-1110h-488z" />
    <glyph glyph-name="asciicircum" unicode="^" horiz-adv-x="784" 
d="M232 874h316l196 -608h-237l-104 402h-26l-104 -402h-233z" />
    <glyph glyph-name="underscore" unicode="_" horiz-adv-x="720" 
d="M50 0h620v-231h-620v231z" />
    <glyph glyph-name="grave" unicode="`" horiz-adv-x="317" 
d="M72 680l-72 175h245l72 -175h-245z" />
    <glyph glyph-name="a" unicode="a" 
d="M688 111h-360l-37 -111h-286l309 840h388l309 -840h-286zM620 316l-88 264h-48l-88 -264h224z" />
    <glyph glyph-name="b" unicode="b" horiz-adv-x="924" 
d="M866 353.5q33 -47.5 33 -116.5q0 -109 -85.5 -173t-272.5 -64h-506v840h520q175 0 248.5 -63t73.5 -160q0 -65 -28 -102.5t-80 -65.5v-16q64 -32 97 -79.5zM312 628v-126h214q45 0 65.5 18t20.5 44q0 27 -20.5 45.5t-65.5 18.5h-214zM597.5 233.5q21.5 21.5 21.5 49.5
t-21 48t-66 20h-220v-139h220q44 0 65.5 21.5z" />
    <glyph glyph-name="c" unicode="c" horiz-adv-x="955" 
d="M245 28q-107 56 -166 157.5t-59 234.5t59 234.5t166 157.5t247 56q111 0 206 -36t159.5 -119.5t77.5 -218.5h-264q-17 68 -63 101.5t-116 33.5q-55 0 -100 -26t-71 -73.5t-26 -109.5t26 -109.5t71 -73.5t100 -26q70 0 116 34t63 103h264q-19 -199 -143 -287.5t-300 -88.5
q-140 0 -247 56z" />
    <glyph glyph-name="d" unicode="d" horiz-adv-x="944" 
d="M809.5 727.5q109.5 -112.5 109.5 -307.5t-109.5 -307.5t-352.5 -112.5h-422v840h422q243 0 352.5 -112.5zM591.5 278q49.5 46 49.5 142q0 97 -49 142.5t-135 45.5h-144v-376h144q85 0 134.5 46z" />
    <glyph glyph-name="e" unicode="e" horiz-adv-x="827" 
d="M35 840h757v-222h-480v-107h462v-182h-462v-107h480v-222h-757v840z" />
    <glyph glyph-name="f" unicode="f" horiz-adv-x="825" 
d="M35 840h755v-231h-478v-114h457v-200h-457v-295h-277v840z" />
    <glyph glyph-name="g" unicode="g" horiz-adv-x="979" 
d="M939 0h-148l-4 111q-46 -63 -125.5 -101t-185.5 -38q-129 0 -233 56t-163.5 158t-59.5 234q0 133 59 234.5t168 157.5t253 56q104 0 197.5 -34.5t157.5 -107t80 -180.5h-275q-14 34 -55 58.5t-99 24.5q-62 0 -109.5 -26t-74.5 -73t-27 -110q0 -62 26.5 -109.5t73 -73.5
t103.5 -26q51 0 103.5 22.5t70.5 86.5h-185v144h452v-464z" />
    <glyph glyph-name="h" unicode="h" horiz-adv-x="950" 
d="M915 840v-840h-277v304h-326v-304h-277v840h277v-304h326v304h277z" />
    <glyph glyph-name="i" unicode="i" horiz-adv-x="347" 
d="M35 840h277v-840h-277v840z" />
    <glyph glyph-name="j" unicode="j" horiz-adv-x="830" 
d="M121.5 52q-99.5 80 -96.5 276h276q-1 -121 108 -121t109 145v488h277v-474q0 -145 -46 -232t-132 -124.5t-214 -37.5q-182 0 -281.5 80z" />
    <glyph glyph-name="k" unicode="k" horiz-adv-x="946" 
d="M668 0l-224 299h-18l-115 -123v-176h-276v840h276v-333h18l303 333h308l-341 -374l352 -466h-283z" />
    <glyph glyph-name="l" unicode="l" horiz-adv-x="795" 
d="M35 840h277v-609h448v-231h-725v840z" />
    <glyph glyph-name="m" unicode="m" horiz-adv-x="1062" 
d="M35 840h349l137 -479h20l137 479h349v-840h-264v372h-22l-107 -372h-206l-107 372h-22v-372h-264v840z" />
    <glyph glyph-name="n" unicode="n" horiz-adv-x="962" 
d="M35 840h318l279 -454h25v454h270v-840h-311l-286 454h-25v-454h-270v840z" />
    <glyph glyph-name="o" unicode="o" horiz-adv-x="992" 
d="M245 28q-108 56 -166.5 157.5t-58.5 234.5t58.5 234.5t166.5 157.5t251 56t251 -56t166.5 -157.5t58.5 -234.5t-58.5 -234.5t-166.5 -157.5t-251 -56t-251 56zM597.5 236q45.5 25 72.5 72t27 112t-27 112t-72.5 72t-101.5 25t-101.5 -25t-72.5 -72t-27 -112t27 -112
t72.5 -72t101.5 -25t101.5 25z" />
    <glyph glyph-name="p" unicode="p" horiz-adv-x="902" 
d="M35 840h477q176 0 270.5 -81t94.5 -247t-94.5 -247t-269.5 -81h-201v-184h-277v840zM488 414q51 0 80.5 25t29.5 73t-29 73t-80 25h-177v-196h176z" />
    <glyph glyph-name="q" unicode="q" horiz-adv-x="992" 
d="M856 152l110 -112q-62 -81 -154 -157l-137 125q-91 -36 -179 -36q-143 0 -251 56t-166.5 157.5t-58.5 234.5t58.5 234.5t166.5 157.5t251 56q142 0 250 -55.5t167 -154.5t59 -228q0 -160 -116 -278zM322 308q27 -47 72.5 -72t101.5 -25t101.5 25t72.5 72t27 112t-27 112
t-72.5 72t-101.5 25t-101.5 -25t-72.5 -72t-27 -112t27 -112z" />
    <glyph glyph-name="r" unicode="r" horiz-adv-x="928" 
d="M636 0l-114 217h-210v-217h-277v840h481q178 0 271 -79t93 -242q0 -81 -32.5 -142t-89.5 -101l150 -276h-272zM312 424h185q52 0 79 24t27 69t-27 69t-79 24h-185v-186z" />
    <glyph glyph-name="s" unicode="s" horiz-adv-x="883" 
d="M113.5 45q-103.5 73 -98.5 236h249q2 -45 44 -69t132 -24q74 0 112 19t38 49q0 24 -20.5 41.5t-76.5 25.5l-108 17l-24 4q-104 16 -169 36.5t-111 72.5t-46 147q0 127 102.5 197.5t299.5 70.5t302.5 -69t101.5 -238h-247q-16 91 -163 91q-66 0 -98 -18t-32 -48
q0 -22 17.5 -39t61.5 -24l89 -15l57 -9q108 -16 175.5 -36t115.5 -71.5t48 -146.5q0 -273 -425 -273q-223 0 -326.5 73z" />
    <glyph glyph-name="t" unicode="t" horiz-adv-x="941" 
d="M911 609h-302v-609h-277v609h-302v231h881v-231z" />
    <glyph glyph-name="u" unicode="u" horiz-adv-x="940" 
d="M143 68q-108 96 -108 298v474h279v-467q0 -81 38 -125t118 -44t119 44t39 125v467h277v-472q0 -203 -108 -299.5t-327 -96.5t-327 96z" />
    <glyph glyph-name="v" unicode="v" 
d="M5 840h286l202 -580h30l202 580h286l-309 -840h-388z" />
    <glyph glyph-name="w" unicode="w" horiz-adv-x="1290" 
d="M20 840h281l90 -544h24l120 544h220l120 -544h24l90 544h281l-163 -840h-374l-76 404h-24l-76 -404h-374z" />
    <glyph glyph-name="x" unicode="x" horiz-adv-x="930" 
d="M291 419v14l-284 407h298l147 -225h26l147 225h298l-282 -407v-14l289 -419h-301l-151 236h-26l-151 -236h-301z" />
    <glyph glyph-name="y" unicode="y" horiz-adv-x="964" 
d="M620 261v-261h-277v262l-343 578h291l180 -316h22l180 316h291z" />
    <glyph glyph-name="z" unicode="z" horiz-adv-x="830" 
d="M20 223l430 365v21h-420v231h780v-223l-436 -365v-21h430v-231h-784v223z" />
    <glyph glyph-name="braceleft" unicode="{" horiz-adv-x="707" 
d="M167 13v254l-122 141v24l122 141v254q0 88 45 118t103 30h347v-231h-176q-42 0 -42 -34v-139l-113 -139v-24l113 -139v-139q0 -34 42 -34h176v-231h-347q-148 0 -148 148z" />
    <glyph glyph-name="bar" unicode="|" horiz-adv-x="347" 
d="M35 940h277v-1040h-277v1040z" />
    <glyph glyph-name="braceright" unicode="}" horiz-adv-x="707" 
d="M45 -135v231h176q42 0 42 34v139l113 139v24l-113 139v139q0 34 -42 34h-176v231h347q58 0 103 -30t45 -118v-254l122 -141v-24l-122 -141v-254q0 -148 -148 -148h-347z" />
    <glyph glyph-name="asciitilde" unicode="~" horiz-adv-x="714" 
d="M402.5 320q-30.5 10 -70.5 29q-37 17 -60.5 25t-49.5 8q-34 0 -54 -16t-22 -44h-94q-3 23 -3 41q0 59 27.5 99t72.5 59.5t97 19.5q35 0 64.5 -9.5t71.5 -29.5q35 -17 59 -25t49 -9q34 2 54.5 17.5t23.5 42.5h94q3 -21 3 -41q0 -58 -28 -98t-73 -59.5t-96 -20.5
q-35 1 -65.5 11z" />
    <glyph glyph-name="exclamdown" unicode="&#xa1;" horiz-adv-x="521" 
d="M242.5 621.5q31.5 -18.5 50.5 -50t19 -67.5t-19 -67.5t-50.5 -50t-68.5 -18.5t-68.5 18.5t-50.5 50t-19 67.5t19 67.5t50.5 50t68.5 18.5t68.5 -18.5zM263 306l54 -522h-286l54 522h178z" />
    <glyph glyph-name="cent" unicode="&#xa2;" horiz-adv-x="872" 
d="M555 261q42 31 57 93h240q-17 -180 -130 -260.5t-273 -80.5q-74 0 -144 19l-15 -32h-94l29 63q-97 50 -151 142.5t-54 214.5q0 121 53.5 213t151 143t224.5 51q65 0 123 -13l12 26h94l-25 -53q83 -38 135.5 -111.5t63.5 -188.5h-240q-15 58 -55 91l-158 -342q24 -6 50 -6
q64 0 106 31zM325 279l152 329q-18 2 -28 2q-50 0 -91 -23.5t-64.5 -67t-23.5 -99.5q0 -88 55 -141z" />
    <glyph glyph-name="sterling" unicode="&#xa3;" horiz-adv-x="808" 
d="M334 612.5q-29 -22.5 -29 -61.5q0 -23 7 -39.5t21 -41.5l15 -25h304v-115h-292q-12 -72 -78 -112v-8h504v-210h-766v210q47 21 80.5 54.5t43.5 65.5h-124v115h85q-30 45 -45.5 79.5t-15.5 82.5q0 77 46 134.5t130.5 89t195.5 31.5q110 0 194 -31.5t131 -92.5t47 -148
q0 -26 -2 -39h-263q-7 48 -39 66t-74 18q-47 0 -76 -22.5z" />
    <glyph glyph-name="currency" unicode="&#xa4;" horiz-adv-x="816" 
d="M665 473l51 -51l-123 -122l-41 41q-66 -39 -143 -39t-144 40l-42 -42l-123 122l52 52q-18 45 -18 97q0 53 21 103l-55 56l123 122l49 -48q63 36 137 36q72 0 136 -35l48 47l123 -122l-54 -54q22 -50 22 -105q0 -50 -19 -98zM480.5 484.5q25.5 20.5 34 45t8.5 41.5
q0 16 -8.5 41t-34 46.5t-71.5 21.5t-71.5 -21.5t-34.5 -46.5t-9 -41t9 -41t34.5 -45.5t71.5 -20.5t71.5 20.5z" />
    <glyph glyph-name="yen" unicode="&#xa5;" horiz-adv-x="964" 
d="M677 357h207v-109h-264v-40h264v-110h-264v-98h-277v98h-261v110h261v40h-261v109h205l-287 483h291l180 -316h22l180 316h291z" />
    <glyph glyph-name="brokenbar" unicode="&#xa6;" horiz-adv-x="347" 
d="M35 940h277v-483h-277v483zM35 383h277v-483h-277v483z" />
    <glyph glyph-name="section" unicode="&#xa7;" horiz-adv-x="885" 
d="M867 26q0 -137 -105 -205t-320 -68q-223 0 -327.5 73.5t-99.5 237.5h251q2 -47 44 -71t132 -24q74 0 112 19t38 49q0 55 -99 69l-104 17l-25 4q-103 16 -168 35.5t-112 67.5t-47 136q0 113 99 168q-99 61 -99 190q0 127 102.5 197.5t299.5 70.5t302.5 -69t101.5 -240
h-247q-16 93 -163 93q-66 0 -98 -18t-32 -48q0 -51 81 -65l85 -15q18 -3 35 -5.5t32 -5.5q106 -16 171.5 -35.5t112.5 -70.5t47 -144q0 -114 -74 -173q74 -59 74 -170zM457 289q9 -1 24 -1q56 0 83.5 25t27.5 57q0 25 -22 48t-77 31l-83 14q-39 2 -73 -19t-34 -65
q0 -21 18.5 -45t64.5 -32z" />
    <glyph glyph-name="dieresis" unicode="&#xa8;" horiz-adv-x="507" 
d="M29.5 710.5q-29.5 27.5 -29.5 68.5t29.5 68.5t71.5 27.5t71.5 -27.5t29.5 -68.5t-29.5 -68.5t-71.5 -27.5t-71.5 27.5zM334.5 710.5q-29.5 27.5 -29.5 68.5t29.5 68.5t71.5 27.5t71.5 -27.5t29.5 -68.5t-29.5 -68.5t-71.5 -27.5t-71.5 27.5z" />
    <glyph glyph-name="copyright" unicode="&#xa9;" horiz-adv-x="628" 
d="M171 357q-62 34 -96.5 95t-34.5 139t34.5 139.5t96.5 96.5t142 35q81 0 143.5 -35t97 -96.5t34.5 -139.5t-34.5 -139t-97 -95t-143.5 -34q-80 0 -142 34zM413.5 463.5q42.5 28.5 51.5 87.5l-79 -1q-11 -23 -27 -36.5t-47 -13.5q-35 0 -58.5 23.5t-23.5 67.5
q0 43 23.5 66.5t58.5 23.5q31 0 47 -13t27 -34h79q-9 58 -51.5 87t-96.5 29q-72 0 -117.5 -43.5t-45.5 -115.5q0 -71 45 -113.5t118 -42.5q54 0 96.5 28.5z" />
    <glyph glyph-name="ordfeminine" unicode="&#xaa;" horiz-adv-x="548" 
d="M508 840v-433h-126l-21 37q-50 -37 -111 -37q-56 0 -104 29.5t-77 79.5t-29 110t29 110.5t77 80t104 29.5q63 0 115 -40l17 34h126zM308 584q17 17 17 42t-17.5 43.5t-43.5 18.5t-44 -18.5t-18 -43.5t17.5 -42t44.5 -17t44 17z" />
    <glyph glyph-name="guillemotleft" unicode="&#xab;" horiz-adv-x="966" 
d="M254 120l-194 300l194 300h286l-194 -300l194 -300h-286zM620 120l-194 300l194 300h286l-194 -300l194 -300h-286z" />
    <glyph glyph-name="logicalnot" unicode="&#xac;" horiz-adv-x="722" 
d="M442 378h-452v188h682v-292h-230v104z" />
    <glyph glyph-name="uni00AD" unicode="&#xad;" horiz-adv-x="660" 
d="M40 531h580v-231h-580v231z" />
    <glyph glyph-name="registered" unicode="&#xae;" horiz-adv-x="628" 
d="M171 357q-62 34 -96.5 95t-34.5 139t34.5 139.5t96.5 96.5t142 35q81 0 143.5 -35t97 -96.5t34.5 -139.5t-34.5 -139t-97 -95t-143.5 -34q-80 0 -142 34zM262 432v96h73l54 -96h86l-67 112q58 29 58 93q0 52 -35 80t-99 28h-149v-313h79zM262 680h72q22 0 35 -11t13 -32
q0 -20 -13.5 -32t-34.5 -12h-72v87z" />
    <glyph glyph-name="macron" unicode="&#xaf;" horiz-adv-x="460" 
d="M0 885h460v-201h-460v201z" />
    <glyph glyph-name="degree" unicode="&#xb0;" horiz-adv-x="530" 
d="M148 419.5q-52 29.5 -82 81.5t-30 117t30 117t82 81.5t117 29.5t117 -29.5t82 -81.5t30 -117t-30 -117t-82 -81.5t-117 -29.5t-117 29.5zM308 581.5q13 17.5 13 36.5t-13 36.5t-43 17.5t-43 -17.5t-13 -36.5t13 -36.5t43 -17.5t43 17.5z" />
    <glyph glyph-name="plusminus" unicode="&#xb1;" horiz-adv-x="727" 
d="M757 514h-239v-238h-231v238h-238v219h238v239h231v-239h239v-219zM49 231h628v-231h-628v231z" />
    <glyph glyph-name="acute" unicode="&#xb4;" horiz-adv-x="317" 
d="M72 855h245l-72 -175h-245z" />
    <glyph glyph-name="uni00B5" unicode="&#xb5;" horiz-adv-x="828" 
d="M793 680v-680h-272l-5 89h-26q-31 -47 -79 -72.5t-99 -30.5v-136h-277v830h277v-375q0 -58 31.5 -78t71.5 -20q46 0 73.5 26t27.5 61v386h277z" />
    <glyph glyph-name="paragraph" unicode="&#xb6;" horiz-adv-x="1275" 
d="M565 192h-147q-191 0 -294.5 80t-103.5 244t103.5 244t295.5 80h423v-840h-277v192zM963 840h277v-840h-277v840z" />
    <glyph glyph-name="periodcentered" unicode="&#xb7;" horiz-adv-x="436" 
d="M149.5 302.5q-31.5 18.5 -50.5 50t-19 67.5t19 67.5t50.5 50t68.5 18.5t68.5 -18.5t50.5 -50t19 -67.5t-19 -67.5t-50.5 -50t-68.5 -18.5t-68.5 18.5z" />
    <glyph glyph-name="cedilla" unicode="&#xb8;" horiz-adv-x="258" 
d="M223.5 -66.5q34.5 -29.5 34.5 -82.5q0 -61 -49 -94t-127 -33q-40 0 -82 9v105q36 -7 62 -7q24 0 36.5 5t12.5 11q0 8 -14 15.5t-40 7.5t-57 -8v66l94 72h93l-45 -34q47 -3 81.5 -32.5z" />
    <glyph glyph-name="ordmasculine" unicode="&#xba;" horiz-adv-x="514" 
d="M148 438q-50 29 -79 79t-29 109q0 60 29 110.5t79 80t109 29.5t109 -29.5t79 -80t29 -110.5q0 -59 -29 -109t-79 -79t-109 -29t-109 29zM300 583q17 16 17 43t-17 44.5t-43 17.5t-43 -17.5t-17 -44.5t17 -43t43 -16t43 16z" />
    <glyph glyph-name="guillemotright" unicode="&#xbb;" horiz-adv-x="966" 
d="M620 420l-194 300h286l194 -300l-194 -300h-286zM254 420l-194 300h286l194 -300l-194 -300h-286z" />
    <glyph glyph-name="questiondown" unicode="&#xbf;" horiz-adv-x="810" 
d="M475.5 621.5q31.5 -18.5 50.5 -50t19 -67.5t-19 -67.5t-50.5 -50t-68.5 -18.5t-68.5 18.5t-50.5 50t-19 67.5t19 67.5t50.5 50t68.5 18.5t68.5 -18.5zM541 279q0 -51 -21.5 -82t-51.5 -47t-77 -33q-48 -17 -69.5 -31t-21.5 -41q0 -28 31 -45.5t80 -17.5q55 0 94.5 23.5
t39.5 85.5h250q7 -165 -92.5 -247t-289.5 -82q-181 0 -284.5 62t-103.5 189q0 59 20.5 95.5t49 56t75.5 40.5q35 15 55 27.5t34 32t14 49.5h266q2 -12 2 -35z" />
    <glyph glyph-name="Agrave" unicode="&#xc0;" 
d="M688 111h-360l-37 -111h-286l309 840h388l309 -840h-286zM620 316l-88 264h-48l-88 -264h224zM388 890l-72 175h245l72 -175h-245z" />
    <glyph glyph-name="Aacute" unicode="&#xc1;" 
d="M688 111h-360l-37 -111h-286l309 840h388l309 -840h-286zM620 316l-88 264h-48l-88 -264h224zM456 1065h245l-72 -175h-245z" />
    <glyph glyph-name="Acircumflex" unicode="&#xc2;" 
d="M688 111h-360l-37 -111h-286l309 840h388l309 -840h-286zM620 316l-88 264h-48l-88 -264h224zM341 1065h334l132 -175h-229l-42 49h-56l-42 -49h-229z" />
    <glyph glyph-name="Atilde" unicode="&#xc3;" 
d="M688 111h-360l-37 -111h-286l309 840h388l309 -840h-286zM620 316l-88 264h-48l-88 -264h224zM543.5 896q-23.5 8 -56.5 23q-28 14 -47 20.5t-40 6.5q-27 0 -43.5 -12.5t-18.5 -35.5h-75q-3 18 -3 33q0 70 46.5 106t111.5 36q28 0 51.5 -8t56.5 -23q30 -14 48.5 -20.5
t39.5 -6.5q27 0 43.5 12.5t18.5 35.5h75q3 -18 3 -33q0 -70 -46.5 -106t-111.5 -36q-29 0 -52.5 8z" />
    <glyph glyph-name="Adieresis" unicode="&#xc4;" 
d="M688 111h-360l-37 -111h-286l309 840h388l309 -840h-286zM620 316l-88 264h-48l-88 -264h224zM283.5 920.5q-29.5 27.5 -29.5 68.5t29.5 68.5t71.5 27.5t71.5 -27.5t29.5 -68.5t-29.5 -68.5t-71.5 -27.5t-71.5 27.5zM588.5 920.5q-29.5 27.5 -29.5 68.5t29.5 68.5
t71.5 27.5t71.5 -27.5t29.5 -68.5t-29.5 -68.5t-71.5 -27.5t-71.5 27.5z" />
    <glyph glyph-name="Aring" unicode="&#xc5;" 
d="M688 111h-360l-37 -111h-286l309 840h129q-36 17 -57 51t-21 75q0 39 19 72t51.5 52t72.5 19t72 -19t50.5 -52t18.5 -72q0 -41 -21 -75t-56 -51h130l309 -840h-286zM486.5 990q-8.5 -8 -8.5 -22q0 -15 8 -22.5t22 -7.5q13 0 21.5 7t8.5 19q0 34 -30 34q-13 0 -21.5 -8z
M620 316l-88 264h-48l-88 -264h224z" />
    <glyph glyph-name="AE" unicode="&#xc6;" horiz-adv-x="1397" 
d="M882 618v-107h462v-182h-462v-107h480v-222h-757v113h-270l-51 -113h-279l378 840h979v-222h-480zM605 316v293h-48l-131 -293h179z" />
    <glyph glyph-name="Ccedilla" unicode="&#xc7;" horiz-adv-x="955" 
d="M608 245q46 34 63 103h264q-18 -188 -131 -277.5t-276 -97.5l-9 -7q47 -3 81.5 -32.5t34.5 -82.5q0 -61 -49 -94t-127 -33q-40 0 -82 9v105q36 -7 62 -7q24 0 36.5 5t12.5 11q0 8 -14 15.5t-40 7.5t-57 -8v66l60 46q-125 11 -219.5 69.5t-146 155.5t-51.5 221
q0 133 59 234.5t166 157.5t247 56q111 0 206 -36t159.5 -119.5t77.5 -218.5h-264q-17 68 -63 101.5t-116 33.5q-55 0 -100 -26t-71 -73.5t-26 -109.5t26 -109.5t71 -73.5t100 -26q70 0 116 34z" />
    <glyph glyph-name="Egrave" unicode="&#xc8;" horiz-adv-x="827" 
d="M35 840h757v-222h-480v-107h462v-182h-462v-107h480v-222h-757v840zM286 890l-72 175h245l72 -175h-245z" />
    <glyph glyph-name="Eacute" unicode="&#xc9;" horiz-adv-x="827" 
d="M35 840h757v-222h-480v-107h462v-182h-462v-107h480v-222h-757v840zM354 1065h245l-72 -175h-245z" />
    <glyph glyph-name="Ecircumflex" unicode="&#xca;" horiz-adv-x="827" 
d="M35 840h757v-222h-480v-107h462v-182h-462v-107h480v-222h-757v840zM239 1065h334l132 -175h-229l-42 49h-56l-42 -49h-229z" />
    <glyph glyph-name="Edieresis" unicode="&#xcb;" horiz-adv-x="827" 
d="M35 840h757v-222h-480v-107h462v-182h-462v-107h480v-222h-757v840zM181.5 920.5q-29.5 27.5 -29.5 68.5t29.5 68.5t71.5 27.5t71.5 -27.5t29.5 -68.5t-29.5 -68.5t-71.5 -27.5t-71.5 27.5zM486.5 920.5q-29.5 27.5 -29.5 68.5t29.5 68.5t71.5 27.5t71.5 -27.5
t29.5 -68.5t-29.5 -68.5t-71.5 -27.5t-71.5 27.5z" />
    <glyph glyph-name="Igrave" unicode="&#xcc;" horiz-adv-x="347" 
d="M35 840h277v-840h-277v840zM53 890l-72 175h245l72 -175h-245z" />
    <glyph glyph-name="Iacute" unicode="&#xcd;" horiz-adv-x="347" 
d="M35 840h277v-840h-277v840zM121 1065h245l-72 -175h-245z" />
    <glyph glyph-name="Icircumflex" unicode="&#xce;" horiz-adv-x="347" 
d="M35 840h277v-840h-277v840zM6 1065h334l132 -175h-229l-42 49h-56l-42 -49h-229z" />
    <glyph glyph-name="Idieresis" unicode="&#xcf;" horiz-adv-x="347" 
d="M35 840h277v-840h-277v840zM-51.5 920.5q-29.5 27.5 -29.5 68.5t29.5 68.5t71.5 27.5t71.5 -27.5t29.5 -68.5t-29.5 -68.5t-71.5 -27.5t-71.5 27.5zM253.5 920.5q-29.5 27.5 -29.5 68.5t29.5 68.5t71.5 27.5t71.5 -27.5t29.5 -68.5t-29.5 -68.5t-71.5 -27.5t-71.5 27.5z
" />
    <glyph glyph-name="Eth" unicode="&#xd0;" horiz-adv-x="1002" 
d="M867.5 727.5q109.5 -112.5 109.5 -307.5t-109.5 -307.5t-352.5 -112.5h-422v317h-88v201h88v322h422q243 0 352.5 -112.5zM649.5 278q49.5 46 49.5 142q0 97 -49 142.5t-135 45.5h-144v-90h141v-201h-141v-85h144q85 0 134.5 46z" />
    <glyph glyph-name="Ntilde" unicode="&#xd1;" horiz-adv-x="962" 
d="M35 840h318l279 -454h25v454h270v-840h-311l-286 454h-25v-454h-270v840zM516.5 896q-23.5 8 -56.5 23q-28 14 -47 20.5t-40 6.5q-27 0 -43.5 -12.5t-18.5 -35.5h-75q-3 18 -3 33q0 70 46.5 106t111.5 36q28 0 51.5 -8t56.5 -23q30 -14 48.5 -20.5t39.5 -6.5
q27 0 43.5 12.5t18.5 35.5h75q3 -18 3 -33q0 -70 -46.5 -106t-111.5 -36q-29 0 -52.5 8z" />
    <glyph glyph-name="Ograve" unicode="&#xd2;" horiz-adv-x="992" 
d="M245 28q-108 56 -166.5 157.5t-58.5 234.5t58.5 234.5t166.5 157.5t251 56t251 -56t166.5 -157.5t58.5 -234.5t-58.5 -234.5t-166.5 -157.5t-251 -56t-251 56zM597.5 236q45.5 25 72.5 72t27 112t-27 112t-72.5 72t-101.5 25t-101.5 -25t-72.5 -72t-27 -112t27 -112
t72.5 -72t101.5 -25t101.5 25zM376 894l-72 175h245l72 -175h-245z" />
    <glyph glyph-name="Oacute" unicode="&#xd3;" horiz-adv-x="992" 
d="M245 28q-108 56 -166.5 157.5t-58.5 234.5t58.5 234.5t166.5 157.5t251 56t251 -56t166.5 -157.5t58.5 -234.5t-58.5 -234.5t-166.5 -157.5t-251 -56t-251 56zM597.5 236q45.5 25 72.5 72t27 112t-27 112t-72.5 72t-101.5 25t-101.5 -25t-72.5 -72t-27 -112t27 -112
t72.5 -72t101.5 -25t101.5 25zM444 1069h245l-72 -175h-245z" />
    <glyph glyph-name="Ocircumflex" unicode="&#xd4;" horiz-adv-x="992" 
d="M245 28q-108 56 -166.5 157.5t-58.5 234.5t58.5 234.5t166.5 157.5t251 56t251 -56t166.5 -157.5t58.5 -234.5t-58.5 -234.5t-166.5 -157.5t-251 -56t-251 56zM597.5 236q45.5 25 72.5 72t27 112t-27 112t-72.5 72t-101.5 25t-101.5 -25t-72.5 -72t-27 -112t27 -112
t72.5 -72t101.5 -25t101.5 25zM329 1069h334l132 -175h-229l-42 49h-56l-42 -49h-229z" />
    <glyph glyph-name="Otilde" unicode="&#xd5;" horiz-adv-x="992" 
d="M245 28q-108 56 -166.5 157.5t-58.5 234.5t58.5 234.5t166.5 157.5t251 56t251 -56t166.5 -157.5t58.5 -234.5t-58.5 -234.5t-166.5 -157.5t-251 -56t-251 56zM597.5 236q45.5 25 72.5 72t27 112t-27 112t-72.5 72t-101.5 25t-101.5 -25t-72.5 -72t-27 -112t27 -112
t72.5 -72t101.5 -25t101.5 25zM531.5 900q-23.5 8 -56.5 23q-28 14 -47 20.5t-40 6.5q-27 0 -43.5 -12.5t-18.5 -35.5h-75q-3 18 -3 33q0 70 46.5 106t111.5 36q28 0 51.5 -8t56.5 -23q30 -14 48.5 -20.5t39.5 -6.5q27 0 43.5 12.5t18.5 35.5h75q3 -18 3 -33
q0 -70 -46.5 -106t-111.5 -36q-29 0 -52.5 8z" />
    <glyph glyph-name="Odieresis" unicode="&#xd6;" horiz-adv-x="992" 
d="M245 28q-108 56 -166.5 157.5t-58.5 234.5t58.5 234.5t166.5 157.5t251 56t251 -56t166.5 -157.5t58.5 -234.5t-58.5 -234.5t-166.5 -157.5t-251 -56t-251 56zM597.5 236q45.5 25 72.5 72t27 112t-27 112t-72.5 72t-101.5 25t-101.5 -25t-72.5 -72t-27 -112t27 -112
t72.5 -72t101.5 -25t101.5 25zM271.5 924.5q-29.5 27.5 -29.5 68.5t29.5 68.5t71.5 27.5t71.5 -27.5t29.5 -68.5t-29.5 -68.5t-71.5 -27.5t-71.5 27.5zM576.5 924.5q-29.5 27.5 -29.5 68.5t29.5 68.5t71.5 27.5t71.5 -27.5t29.5 -68.5t-29.5 -68.5t-71.5 -27.5t-71.5 27.5z
" />
    <glyph glyph-name="multiply" unicode="&#xd7;" horiz-adv-x="755" 
d="M536 387l169 -169l-155 -155l-169 169l-168 -168l-164 163l169 169l-169 168l155 154l168 -168l169 169l164 -163z" />
    <glyph glyph-name="Oslash" unicode="&#xd8;" horiz-adv-x="992" 
d="M915 652.5q57 -100.5 57 -232.5q0 -133 -58.5 -234.5t-166.5 -157.5t-251 -56q-64 0 -123 12l-16 -35h-167l40 87q-100 57 -155 156t-55 228q0 133 58.5 234.5t166.5 157.5t251 56q63 0 113 -10l16 34h167l-38 -83q104 -56 161 -156.5zM342 279l162 350h-8
q-56 0 -101.5 -25t-72.5 -72t-27 -112q0 -84 47 -141zM597.5 236q45.5 25 72.5 72t27 112q0 46 -14 84t-40 65l-165 -357q6 -1 18 -1q56 0 101.5 25z" />
    <glyph glyph-name="Ugrave" unicode="&#xd9;" horiz-adv-x="940" 
d="M143 68q-108 96 -108 298v474h279v-467q0 -81 38 -125t118 -44t119 44t39 125v467h277v-472q0 -203 -108 -299.5t-327 -96.5t-327 96zM350 890l-72 175h245l72 -175h-245z" />
    <glyph glyph-name="Uacute" unicode="&#xda;" horiz-adv-x="940" 
d="M143 68q-108 96 -108 298v474h279v-467q0 -81 38 -125t118 -44t119 44t39 125v467h277v-472q0 -203 -108 -299.5t-327 -96.5t-327 96zM418 1065h245l-72 -175h-245z" />
    <glyph glyph-name="Ucircumflex" unicode="&#xdb;" horiz-adv-x="940" 
d="M143 68q-108 96 -108 298v474h279v-467q0 -81 38 -125t118 -44t119 44t39 125v467h277v-472q0 -203 -108 -299.5t-327 -96.5t-327 96zM303 1065h334l132 -175h-229l-42 49h-56l-42 -49h-229z" />
    <glyph glyph-name="Udieresis" unicode="&#xdc;" horiz-adv-x="940" 
d="M143 68q-108 96 -108 298v474h279v-467q0 -81 38 -125t118 -44t119 44t39 125v467h277v-472q0 -203 -108 -299.5t-327 -96.5t-327 96zM245.5 920.5q-29.5 27.5 -29.5 68.5t29.5 68.5t71.5 27.5t71.5 -27.5t29.5 -68.5t-29.5 -68.5t-71.5 -27.5t-71.5 27.5zM550.5 920.5
q-29.5 27.5 -29.5 68.5t29.5 68.5t71.5 27.5t71.5 -27.5t29.5 -68.5t-29.5 -68.5t-71.5 -27.5t-71.5 27.5z" />
    <glyph glyph-name="Yacute" unicode="&#xdd;" horiz-adv-x="964" 
d="M620 261v-261h-277v262l-343 578h291l180 -316h22l180 316h291zM430 1065h245l-72 -175h-245z" />
    <glyph glyph-name="Thorn" unicode="&#xde;" horiz-adv-x="882" 
d="M753.5 664q103.5 -80 103.5 -244t-103.5 -244t-294.5 -80h-147v-96h-277v840h277v-96h146q192 0 295.5 -80zM547.5 349q30.5 23 30.5 71q0 47 -30.5 70.5t-82.5 23.5h-153v-188h152q53 0 83.5 23z" />
    <glyph glyph-name="germandbls" unicode="&#xdf;" horiz-adv-x="890" 
d="M35 560q0 163 109.5 232.5t281.5 69.5q139 0 224.5 -34.5t121.5 -89t36 -116.5q0 -106 -95 -159v-18q71 -26 111.5 -76.5t40.5 -127.5q0 -108 -88 -174.5t-280 -66.5h-130v209h123q54 0 77.5 21.5t23.5 52.5q0 29 -23.5 51t-77.5 22h-123v149h99q44 0 63.5 17t19.5 39
q0 30 -25 48t-82 18q-130 0 -130 -81v-546h-277v560z" />
    <glyph glyph-name="agrave" unicode="&#xe0;" 
d="M688 111h-360l-37 -111h-286l309 840h388l309 -840h-286zM620 316l-88 264h-48l-88 -264h224zM388 890l-72 175h245l72 -175h-245z" />
    <glyph glyph-name="aacute" unicode="&#xe1;" 
d="M688 111h-360l-37 -111h-286l309 840h388l309 -840h-286zM620 316l-88 264h-48l-88 -264h224zM456 1065h245l-72 -175h-245z" />
    <glyph glyph-name="acircumflex" unicode="&#xe2;" 
d="M688 111h-360l-37 -111h-286l309 840h388l309 -840h-286zM620 316l-88 264h-48l-88 -264h224zM341 1065h334l132 -175h-229l-42 49h-56l-42 -49h-229z" />
    <glyph glyph-name="atilde" unicode="&#xe3;" 
d="M688 111h-360l-37 -111h-286l309 840h388l309 -840h-286zM620 316l-88 264h-48l-88 -264h224zM543.5 896q-23.5 8 -56.5 23q-28 14 -47 20.5t-40 6.5q-27 0 -43.5 -12.5t-18.5 -35.5h-75q-3 18 -3 33q0 70 46.5 106t111.5 36q28 0 51.5 -8t56.5 -23q30 -14 48.5 -20.5
t39.5 -6.5q27 0 43.5 12.5t18.5 35.5h75q3 -18 3 -33q0 -70 -46.5 -106t-111.5 -36q-29 0 -52.5 8z" />
    <glyph glyph-name="adieresis" unicode="&#xe4;" 
d="M688 111h-360l-37 -111h-286l309 840h388l309 -840h-286zM620 316l-88 264h-48l-88 -264h224zM283.5 920.5q-29.5 27.5 -29.5 68.5t29.5 68.5t71.5 27.5t71.5 -27.5t29.5 -68.5t-29.5 -68.5t-71.5 -27.5t-71.5 27.5zM588.5 920.5q-29.5 27.5 -29.5 68.5t29.5 68.5
t71.5 27.5t71.5 -27.5t29.5 -68.5t-29.5 -68.5t-71.5 -27.5t-71.5 27.5z" />
    <glyph glyph-name="aring" unicode="&#xe5;" 
d="M688 111h-360l-37 -111h-286l309 840h129q-36 17 -57 51t-21 75q0 39 19 72t51.5 52t72.5 19t72 -19t50.5 -52t18.5 -72q0 -41 -21 -75t-56 -51h130l309 -840h-286zM486.5 990q-8.5 -8 -8.5 -22q0 -15 8 -22.5t22 -7.5q13 0 21.5 7t8.5 19q0 34 -30 34q-13 0 -21.5 -8z
M620 316l-88 264h-48l-88 -264h224z" />
    <glyph glyph-name="ae" unicode="&#xe6;" horiz-adv-x="1397" 
d="M882 618v-107h462v-182h-462v-107h480v-222h-757v113h-270l-51 -113h-279l378 840h979v-222h-480zM605 316v293h-48l-131 -293h179z" />
    <glyph glyph-name="ccedilla" unicode="&#xe7;" horiz-adv-x="955" 
d="M608 245q46 34 63 103h264q-18 -188 -131 -277.5t-276 -97.5l-9 -7q47 -3 81.5 -32.5t34.5 -82.5q0 -61 -49 -94t-127 -33q-40 0 -82 9v105q36 -7 62 -7q24 0 36.5 5t12.5 11q0 8 -14 15.5t-40 7.5t-57 -8v66l60 46q-125 11 -219.5 69.5t-146 155.5t-51.5 221
q0 133 59 234.5t166 157.5t247 56q111 0 206 -36t159.5 -119.5t77.5 -218.5h-264q-17 68 -63 101.5t-116 33.5q-55 0 -100 -26t-71 -73.5t-26 -109.5t26 -109.5t71 -73.5t100 -26q70 0 116 34z" />
    <glyph glyph-name="egrave" unicode="&#xe8;" horiz-adv-x="827" 
d="M35 840h757v-222h-480v-107h462v-182h-462v-107h480v-222h-757v840zM286 890l-72 175h245l72 -175h-245z" />
    <glyph glyph-name="eacute" unicode="&#xe9;" horiz-adv-x="827" 
d="M35 840h757v-222h-480v-107h462v-182h-462v-107h480v-222h-757v840zM354 1065h245l-72 -175h-245z" />
    <glyph glyph-name="ecircumflex" unicode="&#xea;" horiz-adv-x="827" 
d="M35 840h757v-222h-480v-107h462v-182h-462v-107h480v-222h-757v840zM239 1065h334l132 -175h-229l-42 49h-56l-42 -49h-229z" />
    <glyph glyph-name="edieresis" unicode="&#xeb;" horiz-adv-x="827" 
d="M35 840h757v-222h-480v-107h462v-182h-462v-107h480v-222h-757v840zM181.5 920.5q-29.5 27.5 -29.5 68.5t29.5 68.5t71.5 27.5t71.5 -27.5t29.5 -68.5t-29.5 -68.5t-71.5 -27.5t-71.5 27.5zM486.5 920.5q-29.5 27.5 -29.5 68.5t29.5 68.5t71.5 27.5t71.5 -27.5
t29.5 -68.5t-29.5 -68.5t-71.5 -27.5t-71.5 27.5z" />
    <glyph glyph-name="igrave" unicode="&#xec;" horiz-adv-x="347" 
d="M35 840h277v-840h-277v840zM53 890l-72 175h245l72 -175h-245z" />
    <glyph glyph-name="iacute" unicode="&#xed;" horiz-adv-x="347" 
d="M35 840h277v-840h-277v840zM121 1065h245l-72 -175h-245z" />
    <glyph glyph-name="icircumflex" unicode="&#xee;" horiz-adv-x="347" 
d="M35 840h277v-840h-277v840zM6 1065h334l132 -175h-229l-42 49h-56l-42 -49h-229z" />
    <glyph glyph-name="idieresis" unicode="&#xef;" horiz-adv-x="347" 
d="M35 840h277v-840h-277v840zM-51.5 920.5q-29.5 27.5 -29.5 68.5t29.5 68.5t71.5 27.5t71.5 -27.5t29.5 -68.5t-29.5 -68.5t-71.5 -27.5t-71.5 27.5zM253.5 920.5q-29.5 27.5 -29.5 68.5t29.5 68.5t71.5 27.5t71.5 -27.5t29.5 -68.5t-29.5 -68.5t-71.5 -27.5t-71.5 27.5z
" />
    <glyph glyph-name="eth" unicode="&#xf0;" horiz-adv-x="1002" 
d="M867.5 727.5q109.5 -112.5 109.5 -307.5t-109.5 -307.5t-352.5 -112.5h-422v317h-88v201h88v322h422q243 0 352.5 -112.5zM649.5 278q49.5 46 49.5 142q0 97 -49 142.5t-135 45.5h-144v-90h141v-201h-141v-85h144q85 0 134.5 46z" />
    <glyph glyph-name="ntilde" unicode="&#xf1;" horiz-adv-x="962" 
d="M35 840h318l279 -454h25v454h270v-840h-311l-286 454h-25v-454h-270v840zM516.5 896q-23.5 8 -56.5 23q-28 14 -47 20.5t-40 6.5q-27 0 -43.5 -12.5t-18.5 -35.5h-75q-3 18 -3 33q0 70 46.5 106t111.5 36q28 0 51.5 -8t56.5 -23q30 -14 48.5 -20.5t39.5 -6.5
q27 0 43.5 12.5t18.5 35.5h75q3 -18 3 -33q0 -70 -46.5 -106t-111.5 -36q-29 0 -52.5 8z" />
    <glyph glyph-name="ograve" unicode="&#xf2;" horiz-adv-x="992" 
d="M245 28q-108 56 -166.5 157.5t-58.5 234.5t58.5 234.5t166.5 157.5t251 56t251 -56t166.5 -157.5t58.5 -234.5t-58.5 -234.5t-166.5 -157.5t-251 -56t-251 56zM597.5 236q45.5 25 72.5 72t27 112t-27 112t-72.5 72t-101.5 25t-101.5 -25t-72.5 -72t-27 -112t27 -112
t72.5 -72t101.5 -25t101.5 25zM376 894l-72 175h245l72 -175h-245z" />
    <glyph glyph-name="oacute" unicode="&#xf3;" horiz-adv-x="992" 
d="M245 28q-108 56 -166.5 157.5t-58.5 234.5t58.5 234.5t166.5 157.5t251 56t251 -56t166.5 -157.5t58.5 -234.5t-58.5 -234.5t-166.5 -157.5t-251 -56t-251 56zM597.5 236q45.5 25 72.5 72t27 112t-27 112t-72.5 72t-101.5 25t-101.5 -25t-72.5 -72t-27 -112t27 -112
t72.5 -72t101.5 -25t101.5 25zM444 1069h245l-72 -175h-245z" />
    <glyph glyph-name="ocircumflex" unicode="&#xf4;" horiz-adv-x="992" 
d="M245 28q-108 56 -166.5 157.5t-58.5 234.5t58.5 234.5t166.5 157.5t251 56t251 -56t166.5 -157.5t58.5 -234.5t-58.5 -234.5t-166.5 -157.5t-251 -56t-251 56zM597.5 236q45.5 25 72.5 72t27 112t-27 112t-72.5 72t-101.5 25t-101.5 -25t-72.5 -72t-27 -112t27 -112
t72.5 -72t101.5 -25t101.5 25zM329 1069h334l132 -175h-229l-42 49h-56l-42 -49h-229z" />
    <glyph glyph-name="otilde" unicode="&#xf5;" horiz-adv-x="992" 
d="M245 28q-108 56 -166.5 157.5t-58.5 234.5t58.5 234.5t166.5 157.5t251 56t251 -56t166.5 -157.5t58.5 -234.5t-58.5 -234.5t-166.5 -157.5t-251 -56t-251 56zM597.5 236q45.5 25 72.5 72t27 112t-27 112t-72.5 72t-101.5 25t-101.5 -25t-72.5 -72t-27 -112t27 -112
t72.5 -72t101.5 -25t101.5 25zM531.5 900q-23.5 8 -56.5 23q-28 14 -47 20.5t-40 6.5q-27 0 -43.5 -12.5t-18.5 -35.5h-75q-3 18 -3 33q0 70 46.5 106t111.5 36q28 0 51.5 -8t56.5 -23q30 -14 48.5 -20.5t39.5 -6.5q27 0 43.5 12.5t18.5 35.5h75q3 -18 3 -33
q0 -70 -46.5 -106t-111.5 -36q-29 0 -52.5 8z" />
    <glyph glyph-name="odieresis" unicode="&#xf6;" horiz-adv-x="992" 
d="M245 28q-108 56 -166.5 157.5t-58.5 234.5t58.5 234.5t166.5 157.5t251 56t251 -56t166.5 -157.5t58.5 -234.5t-58.5 -234.5t-166.5 -157.5t-251 -56t-251 56zM597.5 236q45.5 25 72.5 72t27 112t-27 112t-72.5 72t-101.5 25t-101.5 -25t-72.5 -72t-27 -112t27 -112
t72.5 -72t101.5 -25t101.5 25zM271.5 924.5q-29.5 27.5 -29.5 68.5t29.5 68.5t71.5 27.5t71.5 -27.5t29.5 -68.5t-29.5 -68.5t-71.5 -27.5t-71.5 27.5zM576.5 924.5q-29.5 27.5 -29.5 68.5t29.5 68.5t71.5 27.5t71.5 -27.5t29.5 -68.5t-29.5 -68.5t-71.5 -27.5t-71.5 27.5z
" />
    <glyph glyph-name="divide" unicode="&#xf7;" horiz-adv-x="728" 
d="M301.5 597q-27.5 16 -43.5 43t-16 58t16 58.5t43.5 43.5t59.5 16t59.5 -16t43.5 -43.5t16 -58.5t-16 -58t-43.5 -43t-59.5 -16t-59.5 16zM50 516h628v-191h-628v191zM301.5 35q-27.5 16 -43.5 43t-16 58t16 58.5t43.5 43.5t59.5 16t59.5 -16t43.5 -43.5t16 -58.5t-16 -58
t-43.5 -43t-59.5 -16t-59.5 16z" />
    <glyph glyph-name="oslash" unicode="&#xf8;" horiz-adv-x="992" 
d="M915 652.5q57 -100.5 57 -232.5q0 -133 -58.5 -234.5t-166.5 -157.5t-251 -56q-64 0 -123 12l-16 -35h-167l40 87q-100 57 -155 156t-55 228q0 133 58.5 234.5t166.5 157.5t251 56q63 0 113 -10l16 34h167l-38 -83q104 -56 161 -156.5zM342 279l162 350h-8
q-56 0 -101.5 -25t-72.5 -72t-27 -112q0 -84 47 -141zM597.5 236q45.5 25 72.5 72t27 112q0 46 -14 84t-40 65l-165 -357q6 -1 18 -1q56 0 101.5 25z" />
    <glyph glyph-name="ugrave" unicode="&#xf9;" horiz-adv-x="940" 
d="M143 68q-108 96 -108 298v474h279v-467q0 -81 38 -125t118 -44t119 44t39 125v467h277v-472q0 -203 -108 -299.5t-327 -96.5t-327 96zM350 890l-72 175h245l72 -175h-245z" />
    <glyph glyph-name="uacute" unicode="&#xfa;" horiz-adv-x="940" 
d="M143 68q-108 96 -108 298v474h279v-467q0 -81 38 -125t118 -44t119 44t39 125v467h277v-472q0 -203 -108 -299.5t-327 -96.5t-327 96zM418 1065h245l-72 -175h-245z" />
    <glyph glyph-name="ucircumflex" unicode="&#xfb;" horiz-adv-x="940" 
d="M143 68q-108 96 -108 298v474h279v-467q0 -81 38 -125t118 -44t119 44t39 125v467h277v-472q0 -203 -108 -299.5t-327 -96.5t-327 96zM303 1065h334l132 -175h-229l-42 49h-56l-42 -49h-229z" />
    <glyph glyph-name="udieresis" unicode="&#xfc;" horiz-adv-x="940" 
d="M143 68q-108 96 -108 298v474h279v-467q0 -81 38 -125t118 -44t119 44t39 125v467h277v-472q0 -203 -108 -299.5t-327 -96.5t-327 96zM245.5 920.5q-29.5 27.5 -29.5 68.5t29.5 68.5t71.5 27.5t71.5 -27.5t29.5 -68.5t-29.5 -68.5t-71.5 -27.5t-71.5 27.5zM550.5 920.5
q-29.5 27.5 -29.5 68.5t29.5 68.5t71.5 27.5t71.5 -27.5t29.5 -68.5t-29.5 -68.5t-71.5 -27.5t-71.5 27.5z" />
    <glyph glyph-name="yacute" unicode="&#xfd;" horiz-adv-x="964" 
d="M620 261v-261h-277v262l-343 578h291l180 -316h22l180 316h291zM430 1065h245l-72 -175h-245z" />
    <glyph glyph-name="thorn" unicode="&#xfe;" horiz-adv-x="882" 
d="M753.5 664q103.5 -80 103.5 -244t-103.5 -244t-294.5 -80h-147v-96h-277v840h277v-96h146q192 0 295.5 -80zM547.5 349q30.5 23 30.5 71q0 47 -30.5 70.5t-82.5 23.5h-153v-188h152q53 0 83.5 23z" />
    <glyph glyph-name="ydieresis" unicode="&#xff;" horiz-adv-x="964" 
d="M620 261v-261h-277v262l-343 578h291l180 -316h22l180 316h291zM257.5 920.5q-29.5 27.5 -29.5 68.5t29.5 68.5t71.5 27.5t71.5 -27.5t29.5 -68.5t-29.5 -68.5t-71.5 -27.5t-71.5 27.5zM562.5 920.5q-29.5 27.5 -29.5 68.5t29.5 68.5t71.5 27.5t71.5 -27.5t29.5 -68.5
t-29.5 -68.5t-71.5 -27.5t-71.5 27.5z" />
    <glyph glyph-name="Amacron" unicode="&#x100;" 
d="M688 111h-360l-37 -111h-286l309 840h388l309 -840h-286zM620 316l-88 264h-48l-88 -264h224zM278 1095h460v-201h-460v201z" />
    <glyph glyph-name="amacron" unicode="&#x101;" 
d="M688 111h-360l-37 -111h-286l309 840h388l309 -840h-286zM620 316l-88 264h-48l-88 -264h224zM278 1095h460v-201h-460v201z" />
    <glyph glyph-name="Abreve" unicode="&#x102;" 
d="M688 111h-360l-37 -111h-286l309 840h388l309 -840h-286zM620 316l-88 264h-48l-88 -264h224zM368.5 906.5q-50.5 16.5 -72.5 54.5t-20 104h166q-1 -31 16.5 -47t49.5 -16t49.5 16t16.5 47h166q2 -66 -20 -104t-72.5 -54.5t-139.5 -16.5t-139.5 16.5z" />
    <glyph glyph-name="abreve" unicode="&#x103;" 
d="M688 111h-360l-37 -111h-286l309 840h388l309 -840h-286zM620 316l-88 264h-48l-88 -264h224zM368.5 906.5q-50.5 16.5 -72.5 54.5t-20 104h166q-1 -31 16.5 -47t49.5 -16t49.5 16t16.5 47h166q2 -66 -20 -104t-72.5 -54.5t-139.5 -16.5t-139.5 16.5z" />
    <glyph glyph-name="Aogonek" unicode="&#x104;" 
d="M664.5 -15q-17.5 -15 -17.5 -35q0 -44 51 -43v-150q-90 0 -162.5 35t-72.5 119q0 89 73 122t166 36l-14 42h-360l-37 -111h-286l309 840h388l309 -840h-286q-43 0 -60.5 -15zM620 316l-88 264h-48l-88 -264h224z" />
    <glyph glyph-name="aogonek" unicode="&#x105;" 
d="M664.5 -15q-17.5 -15 -17.5 -35q0 -44 51 -43v-150q-90 0 -162.5 35t-72.5 119q0 89 73 122t166 36l-14 42h-360l-37 -111h-286l309 840h388l309 -840h-286q-43 0 -60.5 -15zM620 316l-88 264h-48l-88 -264h224z" />
    <glyph glyph-name="Cacute" unicode="&#x106;" horiz-adv-x="955" 
d="M245 28q-107 56 -166 157.5t-59 234.5t59 234.5t166 157.5t247 56q111 0 206 -36t159.5 -119.5t77.5 -218.5h-264q-17 68 -63 101.5t-116 33.5q-55 0 -100 -26t-71 -73.5t-26 -109.5t26 -109.5t71 -73.5t100 -26q70 0 116 34t63 103h264q-19 -199 -143 -287.5t-300 -88.5
q-140 0 -247 56zM442 1065h245l-72 -175h-245z" />
    <glyph glyph-name="cacute" unicode="&#x107;" horiz-adv-x="955" 
d="M245 28q-107 56 -166 157.5t-59 234.5t59 234.5t166 157.5t247 56q111 0 206 -36t159.5 -119.5t77.5 -218.5h-264q-17 68 -63 101.5t-116 33.5q-55 0 -100 -26t-71 -73.5t-26 -109.5t26 -109.5t71 -73.5t100 -26q70 0 116 34t63 103h264q-19 -199 -143 -287.5t-300 -88.5
q-140 0 -247 56zM442 1065h245l-72 -175h-245z" />
    <glyph glyph-name="Cdotaccent" unicode="&#x10a;" horiz-adv-x="955" 
d="M245 28q-107 56 -166 157.5t-59 234.5t59 234.5t166 157.5t247 56q111 0 206 -36t159.5 -119.5t77.5 -218.5h-264q-17 68 -63 101.5t-116 33.5q-55 0 -100 -26t-71 -73.5t-26 -109.5t26 -109.5t71 -73.5t100 -26q70 0 116 34t63 103h264q-19 -199 -143 -287.5t-300 -88.5
q-140 0 -247 56zM422.5 920.5q-29.5 27.5 -29.5 68.5t29.5 68.5t71.5 27.5t71.5 -27.5t29.5 -68.5t-29.5 -68.5t-71.5 -27.5t-71.5 27.5z" />
    <glyph glyph-name="cdotaccent" unicode="&#x10b;" horiz-adv-x="955" 
d="M245 28q-107 56 -166 157.5t-59 234.5t59 234.5t166 157.5t247 56q111 0 206 -36t159.5 -119.5t77.5 -218.5h-264q-17 68 -63 101.5t-116 33.5q-55 0 -100 -26t-71 -73.5t-26 -109.5t26 -109.5t71 -73.5t100 -26q70 0 116 34t63 103h264q-19 -199 -143 -287.5t-300 -88.5
q-140 0 -247 56zM422.5 920.5q-29.5 27.5 -29.5 68.5t29.5 68.5t71.5 27.5t71.5 -27.5t29.5 -68.5t-29.5 -68.5t-71.5 -27.5t-71.5 27.5z" />
    <glyph glyph-name="Ccaron" unicode="&#x10c;" horiz-adv-x="955" 
d="M608 245q46 34 63 103h264q-19 -199 -143 -287.5t-300 -88.5q-140 0 -247 56t-166 157.5t-59 234.5q0 117 45.5 209.5t129.5 152t197 78.5h-63l-132 175h229l42 -49h56l42 49h229l-132 -175h-69q139 -22 232 -111t109 -255h-264q-17 68 -63 101.5t-116 33.5
q-55 0 -100 -26t-71 -73.5t-26 -109.5t26 -109.5t71 -73.5t100 -26q70 0 116 34z" />
    <glyph glyph-name="ccaron" unicode="&#x10d;" horiz-adv-x="955" 
d="M608 245q46 34 63 103h264q-19 -199 -143 -287.5t-300 -88.5q-140 0 -247 56t-166 157.5t-59 234.5q0 117 45.5 209.5t129.5 152t197 78.5h-63l-132 175h229l42 -49h56l42 49h229l-132 -175h-69q139 -22 232 -111t109 -255h-264q-17 68 -63 101.5t-116 33.5
q-55 0 -100 -26t-71 -73.5t-26 -109.5t26 -109.5t71 -73.5t100 -26q70 0 116 34z" />
    <glyph glyph-name="Dcaron" unicode="&#x10e;" horiz-adv-x="944" 
d="M809.5 727.5q109.5 -112.5 109.5 -307.5t-109.5 -307.5t-352.5 -112.5h-422v840h422q243 0 352.5 -112.5zM591.5 278q49.5 46 49.5 142q0 97 -49 142.5t-135 45.5h-144v-376h144q85 0 134.5 46zM396 1035l42 -49h56l42 49h229l-132 -175h-334l-132 175h229z" />
    <glyph glyph-name="dcaron" unicode="&#x10f;" horiz-adv-x="944" 
d="M809.5 727.5q109.5 -112.5 109.5 -307.5t-109.5 -307.5t-352.5 -112.5h-422v840h422q243 0 352.5 -112.5zM591.5 278q49.5 46 49.5 142q0 97 -49 142.5t-135 45.5h-144v-376h144q85 0 134.5 46zM396 1035l42 -49h56l42 49h229l-132 -175h-334l-132 175h229z" />
    <glyph glyph-name="Dcroat" unicode="&#x110;" horiz-adv-x="1002" 
d="M867.5 727.5q109.5 -112.5 109.5 -307.5t-109.5 -307.5t-352.5 -112.5h-422v317h-88v201h88v322h422q243 0 352.5 -112.5zM649.5 278q49.5 46 49.5 142q0 97 -49 142.5t-135 45.5h-144v-90h141v-201h-141v-85h144q85 0 134.5 46z" />
    <glyph glyph-name="dcroat" unicode="&#x111;" horiz-adv-x="1002" 
d="M867.5 727.5q109.5 -112.5 109.5 -307.5t-109.5 -307.5t-352.5 -112.5h-422v317h-88v201h88v322h422q243 0 352.5 -112.5zM649.5 278q49.5 46 49.5 142q0 97 -49 142.5t-135 45.5h-144v-90h141v-201h-141v-85h144q85 0 134.5 46z" />
    <glyph glyph-name="Emacron" unicode="&#x112;" horiz-adv-x="827" 
d="M35 840h757v-222h-480v-107h462v-182h-462v-107h480v-222h-757v840zM176 1095h460v-201h-460v201z" />
    <glyph glyph-name="emacron" unicode="&#x113;" horiz-adv-x="827" 
d="M35 840h757v-222h-480v-107h462v-182h-462v-107h480v-222h-757v840zM176 1095h460v-201h-460v201z" />
    <glyph glyph-name="Edotaccent" unicode="&#x116;" horiz-adv-x="827" 
d="M35 840h757v-222h-480v-107h462v-182h-462v-107h480v-222h-757v840zM334.5 920.5q-29.5 27.5 -29.5 68.5t29.5 68.5t71.5 27.5t71.5 -27.5t29.5 -68.5t-29.5 -68.5t-71.5 -27.5t-71.5 27.5z" />
    <glyph glyph-name="edotaccent" unicode="&#x117;" horiz-adv-x="827" 
d="M35 840h757v-222h-480v-107h462v-182h-462v-107h480v-222h-757v840zM334.5 920.5q-29.5 27.5 -29.5 68.5t29.5 68.5t71.5 27.5t71.5 -27.5t29.5 -68.5t-29.5 -68.5t-71.5 -27.5t-71.5 27.5z" />
    <glyph glyph-name="Eogonek" unicode="&#x118;" horiz-adv-x="827" 
d="M312 618v-107h462v-182h-462v-107h480v-222q-43 0 -60.5 -15t-17.5 -35q0 -44 51 -43v-150q-90 0 -162.5 35t-72.5 119q0 54 32 89h-527v840h757v-222h-480z" />
    <glyph glyph-name="eogonek" unicode="&#x119;" horiz-adv-x="827" 
d="M312 618v-107h462v-182h-462v-107h480v-222q-43 0 -60.5 -15t-17.5 -35q0 -44 51 -43v-150q-90 0 -162.5 35t-72.5 119q0 54 32 89h-527v840h757v-222h-480z" />
    <glyph glyph-name="Ecaron" unicode="&#x11a;" horiz-adv-x="827" 
d="M35 840h757v-222h-480v-107h462v-182h-462v-107h480v-222h-757v840zM338 1035l42 -49h56l42 49h229l-132 -175h-334l-132 175h229z" />
    <glyph glyph-name="ecaron" unicode="&#x11b;" horiz-adv-x="827" 
d="M35 840h757v-222h-480v-107h462v-182h-462v-107h480v-222h-757v840zM338 1035l42 -49h56l42 49h229l-132 -175h-334l-132 175h229z" />
    <glyph glyph-name="Gbreve" unicode="&#x11e;" horiz-adv-x="979" 
d="M939 0h-148l-4 111q-46 -63 -125.5 -101t-185.5 -38q-129 0 -233 56t-163.5 158t-59.5 234q0 133 59 234.5t168 157.5t253 56q104 0 197.5 -34.5t157.5 -107t80 -180.5h-275q-14 34 -55 58.5t-99 24.5q-62 0 -109.5 -26t-74.5 -73t-27 -110q0 -62 26.5 -109.5t73 -73.5
t103.5 -26q51 0 103.5 22.5t70.5 86.5h-185v144h452v-464zM354.5 906.5q-50.5 16.5 -72.5 54.5t-20 104h166q-1 -31 16.5 -47t49.5 -16t49.5 16t16.5 47h166q2 -66 -20 -104t-72.5 -54.5t-139.5 -16.5t-139.5 16.5z" />
    <glyph glyph-name="gbreve" unicode="&#x11f;" horiz-adv-x="979" 
d="M939 0h-148l-4 111q-46 -63 -125.5 -101t-185.5 -38q-129 0 -233 56t-163.5 158t-59.5 234q0 133 59 234.5t168 157.5t253 56q104 0 197.5 -34.5t157.5 -107t80 -180.5h-275q-14 34 -55 58.5t-99 24.5q-62 0 -109.5 -26t-74.5 -73t-27 -110q0 -62 26.5 -109.5t73 -73.5
t103.5 -26q51 0 103.5 22.5t70.5 86.5h-185v144h452v-464zM354.5 906.5q-50.5 16.5 -72.5 54.5t-20 104h166q-1 -31 16.5 -47t49.5 -16t49.5 16t16.5 47h166q2 -66 -20 -104t-72.5 -54.5t-139.5 -16.5t-139.5 16.5z" />
    <glyph glyph-name="Gdotaccent" unicode="&#x120;" horiz-adv-x="979" 
d="M939 0h-148l-4 111q-46 -63 -125.5 -101t-185.5 -38q-129 0 -233 56t-163.5 158t-59.5 234q0 133 59 234.5t168 157.5t253 56q104 0 197.5 -34.5t157.5 -107t80 -180.5h-275q-14 34 -55 58.5t-99 24.5q-62 0 -109.5 -26t-74.5 -73t-27 -110q0 -62 26.5 -109.5t73 -73.5
t103.5 -26q51 0 103.5 22.5t70.5 86.5h-185v144h452v-464zM422.5 920.5q-29.5 27.5 -29.5 68.5t29.5 68.5t71.5 27.5t71.5 -27.5t29.5 -68.5t-29.5 -68.5t-71.5 -27.5t-71.5 27.5z" />
    <glyph glyph-name="gdotaccent" unicode="&#x121;" horiz-adv-x="979" 
d="M939 0h-148l-4 111q-46 -63 -125.5 -101t-185.5 -38q-129 0 -233 56t-163.5 158t-59.5 234q0 133 59 234.5t168 157.5t253 56q104 0 197.5 -34.5t157.5 -107t80 -180.5h-275q-14 34 -55 58.5t-99 24.5q-62 0 -109.5 -26t-74.5 -73t-27 -110q0 -62 26.5 -109.5t73 -73.5
t103.5 -26q51 0 103.5 22.5t70.5 86.5h-185v144h452v-464zM422.5 920.5q-29.5 27.5 -29.5 68.5t29.5 68.5t71.5 27.5t71.5 -27.5t29.5 -68.5t-29.5 -68.5t-71.5 -27.5t-71.5 27.5z" />
    <glyph glyph-name="Gcommaaccent" unicode="&#x122;" horiz-adv-x="979" 
d="M939 0h-148l-4 111q-46 -63 -125.5 -101t-185.5 -38q-129 0 -233 56t-163.5 158t-59.5 234q0 133 59 234.5t168 157.5t253 56q104 0 197.5 -34.5t157.5 -107t80 -180.5h-275q-14 34 -55 58.5t-99 24.5q-62 0 -109.5 -26t-74.5 -73t-27 -110q0 -62 26.5 -109.5t73 -73.5
t103.5 -26q51 0 103.5 22.5t70.5 86.5h-185v144h452v-464zM449 -265h-94v199h281v-44q0 -136 -16 -230t-36 -130h-146q13 95 11 205z" />
    <glyph glyph-name="gcommaaccent" unicode="&#x123;" horiz-adv-x="979" 
d="M939 0h-148l-4 111q-46 -63 -125.5 -101t-185.5 -38q-129 0 -233 56t-163.5 158t-59.5 234q0 133 59 234.5t168 157.5t253 56q104 0 197.5 -34.5t157.5 -107t80 -180.5h-275q-14 34 -55 58.5t-99 24.5q-62 0 -109.5 -26t-74.5 -73t-27 -110q0 -62 26.5 -109.5t73 -73.5
t103.5 -26q51 0 103.5 22.5t70.5 86.5h-185v144h452v-464zM449 -265h-94v199h281v-44q0 -136 -16 -230t-36 -130h-146q13 95 11 205z" />
    <glyph glyph-name="Hbar" unicode="&#x126;" horiz-adv-x="950" 
d="M915 840v-840h-277v304h-326v-304h-277v840h277v-71h322v-190h-322v-43h326v304h277z" />
    <glyph glyph-name="hbar" unicode="&#x127;" horiz-adv-x="950" 
d="M915 840v-840h-277v304h-326v-304h-277v840h277v-71h322v-190h-322v-43h326v304h277z" />
    <glyph glyph-name="Imacron" unicode="&#x12a;" horiz-adv-x="347" 
d="M35 840h277v-840h-277v840zM-57 1095h460v-201h-460v201z" />
    <glyph glyph-name="imacron" unicode="&#x12b;" horiz-adv-x="347" 
d="M35 840h277v-840h-277v840zM-57 1095h460v-201h-460v201z" />
    <glyph glyph-name="Iogonek" unicode="&#x12e;" horiz-adv-x="347" 
d="M312 840v-840q-43 0 -60.5 -15t-17.5 -35q0 -44 51 -43v-150q-90 0 -162.5 35t-72.5 119q0 54 32 89h-47v840h277z" />
    <glyph glyph-name="iogonek" unicode="&#x12f;" horiz-adv-x="347" 
d="M312 840v-840q-43 0 -60.5 -15t-17.5 -35q0 -44 51 -43v-150q-90 0 -162.5 35t-72.5 119q0 54 32 89h-47v840h277z" />
    <glyph glyph-name="Idotaccent" unicode="&#x130;" horiz-adv-x="347" 
d="M35 840h277v-840h-277v840zM101.5 920.5q-29.5 27.5 -29.5 68.5t29.5 68.5t71.5 27.5t71.5 -27.5t29.5 -68.5t-29.5 -68.5t-71.5 -27.5t-71.5 27.5z" />
    <glyph glyph-name="dotlessi" unicode="&#x131;" horiz-adv-x="347" 
d="M35 840h277v-840h-277v840z" />
    <glyph glyph-name="IJ" unicode="&#x132;" horiz-adv-x="1174" 
d="M35 840h277v-840h-277v840zM465.5 52q-99.5 80 -96.5 276h276q-1 -121 108 -121t109 145v488h277v-474q0 -145 -46 -232t-132 -124.5t-214 -37.5q-182 0 -281.5 80z" />
    <glyph glyph-name="Kcommaaccent" unicode="&#x136;" horiz-adv-x="946" 
d="M668 0l-224 299h-18l-115 -123v-176h-276v840h276v-333h18l303 333h308l-341 -374l352 -466h-283zM435 -265h-94v199h281v-44q0 -136 -16 -230t-36 -130h-146q13 95 11 205z" />
    <glyph glyph-name="kcommaaccent" unicode="&#x137;" horiz-adv-x="946" 
d="M668 0l-224 299h-18l-115 -123v-176h-276v840h276v-333h18l303 333h308l-341 -374l352 -466h-283zM435 -265h-94v199h281v-44q0 -136 -16 -230t-36 -130h-146q13 95 11 205z" />
    <glyph glyph-name="Lacute" unicode="&#x139;" horiz-adv-x="795" 
d="M35 840h277v-609h448v-231h-725v840zM107 1055h245l-72 -175h-245z" />
    <glyph glyph-name="lacute" unicode="&#x13a;" horiz-adv-x="795" 
d="M35 840h277v-609h448v-231h-725v840zM107 1055h245l-72 -175h-245z" />
    <glyph glyph-name="Lcommaaccent" unicode="&#x13b;" horiz-adv-x="795" 
d="M35 840h277v-609h448v-231h-725v840zM352 -265h-94v199h281v-44q0 -136 -16 -230t-36 -130h-146q13 95 11 205z" />
    <glyph glyph-name="lcommaaccent" unicode="&#x13c;" horiz-adv-x="795" 
d="M35 840h277v-609h448v-231h-725v840zM352 -265h-94v199h281v-44q0 -136 -16 -230t-36 -130h-146q13 95 11 205z" />
    <glyph glyph-name="Lcaron" unicode="&#x13d;" horiz-adv-x="795" 
d="M35 840h277v-609h448v-231h-725v840zM513 609h-109v231h326v-51q0 -157 -18.5 -266t-41.5 -152h-170q15 105 13 238z" />
    <glyph glyph-name="lcaron" unicode="&#x13e;" horiz-adv-x="795" 
d="M35 840h277v-609h448v-231h-725v840zM513 609h-109v231h326v-51q0 -157 -18.5 -266t-41.5 -152h-170q15 105 13 238z" />
    <glyph glyph-name="Ldot" unicode="&#x13f;" horiz-adv-x="795" 
d="M35 840h277v-609h448v-231h-725v840zM483.5 410.5q-31.5 18.5 -50.5 50t-19 67.5t19 67.5t50.5 50t68.5 18.5t68.5 -18.5t50.5 -50t19 -67.5t-19 -67.5t-50.5 -50t-68.5 -18.5t-68.5 18.5z" />
    <glyph glyph-name="Lslash" unicode="&#x141;" horiz-adv-x="831" 
d="M796 231v-231h-725v209l-71 -54v198l71 54v433h277v-221l140 107v-198l-140 -107v-190h448z" />
    <glyph glyph-name="lslash" unicode="&#x142;" horiz-adv-x="831" 
d="M796 231v-231h-725v209l-71 -54v198l71 54v433h277v-221l140 107v-198l-140 -107v-190h448z" />
    <glyph glyph-name="Nacute" unicode="&#x143;" horiz-adv-x="962" 
d="M35 840h318l279 -454h25v454h270v-840h-311l-286 454h-25v-454h-270v840zM429 1065h245l-72 -175h-245z" />
    <glyph glyph-name="nacute" unicode="&#x144;" horiz-adv-x="962" 
d="M35 840h318l279 -454h25v454h270v-840h-311l-286 454h-25v-454h-270v840zM429 1065h245l-72 -175h-245z" />
    <glyph glyph-name="Ncommaaccent" unicode="&#x145;" horiz-adv-x="962" 
d="M35 840h318l279 -454h25v454h270v-840h-311l-286 454h-25v-454h-270v840zM436 -265h-94v199h281v-44q0 -136 -16 -230t-36 -130h-146q13 95 11 205z" />
    <glyph glyph-name="ncommaaccent" unicode="&#x146;" horiz-adv-x="962" 
d="M35 840h318l279 -454h25v454h270v-840h-311l-286 454h-25v-454h-270v840zM436 -265h-94v199h281v-44q0 -136 -16 -230t-36 -130h-146q13 95 11 205z" />
    <glyph glyph-name="Ncaron" unicode="&#x147;" horiz-adv-x="962" 
d="M35 840h318l279 -454h25v454h270v-840h-311l-286 454h-25v-454h-270v840zM413 1035l42 -49h56l42 49h229l-132 -175h-334l-132 175h229z" />
    <glyph glyph-name="ncaron" unicode="&#x148;" horiz-adv-x="962" 
d="M35 840h318l279 -454h25v454h270v-840h-311l-286 454h-25v-454h-270v840zM413 1035l42 -49h56l42 49h229l-132 -175h-334l-132 175h229z" />
    <glyph glyph-name="Eng" unicode="&#x14a;" horiz-adv-x="962" 
d="M927 840v-840q-1 -152 -100 -224.5t-282 -72.5l4 232q31 0 52 3t38.5 16.5t17.5 43.5v2h-41l-286 454h-25v-454h-270v840h318l279 -454h25v454h270z" />
    <glyph glyph-name="eng" unicode="&#x14b;" horiz-adv-x="962" 
d="M927 840v-840q-1 -152 -100 -224.5t-282 -72.5l4 232q31 0 52 3t38.5 16.5t17.5 43.5v2h-41l-286 454h-25v-454h-270v840h318l279 -454h25v454h270z" />
    <glyph glyph-name="Omacron" unicode="&#x14c;" horiz-adv-x="992" 
d="M245 28q-108 56 -166.5 157.5t-58.5 234.5t58.5 234.5t166.5 157.5t251 56t251 -56t166.5 -157.5t58.5 -234.5t-58.5 -234.5t-166.5 -157.5t-251 -56t-251 56zM597.5 236q45.5 25 72.5 72t27 112t-27 112t-72.5 72t-101.5 25t-101.5 -25t-72.5 -72t-27 -112t27 -112
t72.5 -72t101.5 -25t101.5 25zM266 1099h460v-201h-460v201z" />
    <glyph glyph-name="omacron" unicode="&#x14d;" horiz-adv-x="992" 
d="M245 28q-108 56 -166.5 157.5t-58.5 234.5t58.5 234.5t166.5 157.5t251 56t251 -56t166.5 -157.5t58.5 -234.5t-58.5 -234.5t-166.5 -157.5t-251 -56t-251 56zM597.5 236q45.5 25 72.5 72t27 112t-27 112t-72.5 72t-101.5 25t-101.5 -25t-72.5 -72t-27 -112t27 -112
t72.5 -72t101.5 -25t101.5 25zM266 1099h460v-201h-460v201z" />
    <glyph glyph-name="Ohungarumlaut" unicode="&#x150;" horiz-adv-x="992" 
d="M245 28q-108 56 -166.5 157.5t-58.5 234.5t58.5 234.5t166.5 157.5t251 56t251 -56t166.5 -157.5t58.5 -234.5t-58.5 -234.5t-166.5 -157.5t-251 -56t-251 56zM597.5 236q45.5 25 72.5 72t27 112t-27 112t-72.5 72t-101.5 25t-101.5 -25t-72.5 -72t-27 -112t27 -112
t72.5 -72t101.5 -25t101.5 25zM565 1075h245l-72 -175h-245zM278 1075h245l-72 -175h-245z" />
    <glyph glyph-name="ohungarumlaut" unicode="&#x151;" horiz-adv-x="992" 
d="M245 28q-108 56 -166.5 157.5t-58.5 234.5t58.5 234.5t166.5 157.5t251 56t251 -56t166.5 -157.5t58.5 -234.5t-58.5 -234.5t-166.5 -157.5t-251 -56t-251 56zM597.5 236q45.5 25 72.5 72t27 112t-27 112t-72.5 72t-101.5 25t-101.5 -25t-72.5 -72t-27 -112t27 -112
t72.5 -72t101.5 -25t101.5 25zM565 1075h245l-72 -175h-245zM278 1075h245l-72 -175h-245z" />
    <glyph glyph-name="OE" unicode="&#x152;" horiz-adv-x="1488" 
d="M973 618v-107h462v-182h-462v-107h480v-222h-757v6q-91 -34 -200 -34q-143 0 -251 56t-166.5 157.5t-58.5 234.5t58.5 234.5t166.5 157.5t251 56q109 0 200 -34v6h757v-222h-480zM592 233q44 22 71.5 64t32.5 99v48q-5 57 -32.5 99t-71.5 64t-96 22q-56 0 -101.5 -25
t-72.5 -72t-27 -112t27 -112t72.5 -72t101.5 -25q52 0 96 22z" />
    <glyph glyph-name="oe" unicode="&#x153;" horiz-adv-x="1488" 
d="M973 618v-107h462v-182h-462v-107h480v-222h-757v6q-91 -34 -200 -34q-143 0 -251 56t-166.5 157.5t-58.5 234.5t58.5 234.5t166.5 157.5t251 56q109 0 200 -34v6h757v-222h-480zM592 233q44 22 71.5 64t32.5 99v48q-5 57 -32.5 99t-71.5 64t-96 22q-56 0 -101.5 -25
t-72.5 -72t-27 -112t27 -112t72.5 -72t101.5 -25q52 0 96 22z" />
    <glyph glyph-name="Racute" unicode="&#x154;" horiz-adv-x="928" 
d="M636 0l-114 217h-210v-217h-277v840h481q178 0 271 -79t93 -242q0 -81 -32.5 -142t-89.5 -101l150 -276h-272zM312 424h185q52 0 79 24t27 69t-27 69t-79 24h-185v-186zM403 1065h245l-72 -175h-245z" />
    <glyph glyph-name="racute" unicode="&#x155;" horiz-adv-x="928" 
d="M636 0l-114 217h-210v-217h-277v840h481q178 0 271 -79t93 -242q0 -81 -32.5 -142t-89.5 -101l150 -276h-272zM312 424h185q52 0 79 24t27 69t-27 69t-79 24h-185v-186zM403 1065h245l-72 -175h-245z" />
    <glyph glyph-name="Rcommaaccent" unicode="&#x156;" horiz-adv-x="928" 
d="M636 0l-114 217h-210v-217h-277v840h481q178 0 271 -79t93 -242q0 -81 -32.5 -142t-89.5 -101l150 -276h-272zM312 424h185q52 0 79 24t27 69t-27 69t-79 24h-185v-186zM410 -265h-94v199h281v-44q0 -136 -16 -230t-36 -130h-146q13 95 11 205z" />
    <glyph glyph-name="rcommaaccent" unicode="&#x157;" horiz-adv-x="928" 
d="M636 0l-114 217h-210v-217h-277v840h481q178 0 271 -79t93 -242q0 -81 -32.5 -142t-89.5 -101l150 -276h-272zM312 424h185q52 0 79 24t27 69t-27 69t-79 24h-185v-186zM410 -265h-94v199h281v-44q0 -136 -16 -230t-36 -130h-146q13 95 11 205z" />
    <glyph glyph-name="Rcaron" unicode="&#x158;" horiz-adv-x="928" 
d="M636 0l-114 217h-210v-217h-277v840h481q178 0 271 -79t93 -242q0 -81 -32.5 -142t-89.5 -101l150 -276h-272zM312 424h185q52 0 79 24t27 69t-27 69t-79 24h-185v-186zM387 1035l42 -49h56l42 49h229l-132 -175h-334l-132 175h229z" />
    <glyph glyph-name="rcaron" unicode="&#x159;" horiz-adv-x="928" 
d="M636 0l-114 217h-210v-217h-277v840h481q178 0 271 -79t93 -242q0 -81 -32.5 -142t-89.5 -101l150 -276h-272zM312 424h185q52 0 79 24t27 69t-27 69t-79 24h-185v-186zM387 1035l42 -49h56l42 49h229l-132 -175h-334l-132 175h229z" />
    <glyph glyph-name="Sacute" unicode="&#x15a;" horiz-adv-x="883" 
d="M113.5 45q-103.5 73 -98.5 236h249q2 -45 44 -69t132 -24q74 0 112 19t38 49q0 24 -20.5 41.5t-76.5 25.5l-108 17l-24 4q-104 16 -169 36.5t-111 72.5t-46 147q0 127 102.5 197.5t299.5 70.5t302.5 -69t101.5 -238h-247q-16 91 -163 91q-66 0 -98 -18t-32 -48
q0 -22 17.5 -39t61.5 -24l89 -15l57 -9q108 -16 175.5 -36t115.5 -71.5t48 -146.5q0 -273 -425 -273q-223 0 -326.5 73zM392 1065h245l-72 -175h-245z" />
    <glyph glyph-name="sacute" unicode="&#x15b;" horiz-adv-x="883" 
d="M113.5 45q-103.5 73 -98.5 236h249q2 -45 44 -69t132 -24q74 0 112 19t38 49q0 24 -20.5 41.5t-76.5 25.5l-108 17l-24 4q-104 16 -169 36.5t-111 72.5t-46 147q0 127 102.5 197.5t299.5 70.5t302.5 -69t101.5 -238h-247q-16 91 -163 91q-66 0 -98 -18t-32 -48
q0 -22 17.5 -39t61.5 -24l89 -15l57 -9q108 -16 175.5 -36t115.5 -71.5t48 -146.5q0 -273 -425 -273q-223 0 -326.5 73zM392 1065h245l-72 -175h-245z" />
    <glyph glyph-name="Scedilla" unicode="&#x15e;" horiz-adv-x="883" 
d="M477 -27l-8 -7q47 -3 81.5 -32.5t34.5 -82.5q0 -61 -49 -94t-127 -33q-40 0 -82 9v105q36 -7 62 -7q24 0 36.5 5t12.5 11q0 8 -14 15.5t-40 7.5t-57 -8v66l59 45q-194 8 -285 82t-86 226h249q2 -45 44 -69t132 -24q74 0 112 19t38 49q0 24 -20.5 41.5t-76.5 25.5l-108 17
l-24 4q-104 16 -169 36.5t-111 72.5t-46 147q0 127 102.5 197.5t299.5 70.5t302.5 -69t101.5 -238h-247q-16 91 -163 91q-66 0 -98 -18t-32 -48q0 -22 17.5 -39t61.5 -24l89 -15l57 -9q108 -16 175.5 -36t115.5 -71.5t48 -146.5q0 -262 -388 -272z" />
    <glyph glyph-name="scedilla" unicode="&#x15f;" horiz-adv-x="883" 
d="M477 -27l-8 -7q47 -3 81.5 -32.5t34.5 -82.5q0 -61 -49 -94t-127 -33q-40 0 -82 9v105q36 -7 62 -7q24 0 36.5 5t12.5 11q0 8 -14 15.5t-40 7.5t-57 -8v66l59 45q-194 8 -285 82t-86 226h249q2 -45 44 -69t132 -24q74 0 112 19t38 49q0 24 -20.5 41.5t-76.5 25.5l-108 17
l-24 4q-104 16 -169 36.5t-111 72.5t-46 147q0 127 102.5 197.5t299.5 70.5t302.5 -69t101.5 -238h-247q-16 91 -163 91q-66 0 -98 -18t-32 -48q0 -22 17.5 -39t61.5 -24l89 -15l57 -9q108 -16 175.5 -36t115.5 -71.5t48 -146.5q0 -262 -388 -272z" />
    <glyph glyph-name="Scaron" unicode="&#x160;" horiz-adv-x="883" 
d="M526 499q108 -16 175.5 -36t115.5 -71.5t48 -146.5q0 -273 -425 -273q-223 0 -326.5 73t-98.5 236h249q2 -45 44 -69t132 -24q74 0 112 19t38 49q0 24 -20.5 41.5t-76.5 25.5l-108 17l-24 4q-104 16 -169 36.5t-111 72.5t-46 147q0 106 71.5 173t210.5 87h-38l-132 175
h229l42 -49h56l42 49h229l-132 -175h-47q135 -19 206.5 -89.5t68.5 -209.5h-247q-16 91 -163 91q-66 0 -98 -18t-32 -48q0 -22 17.5 -39t61.5 -24l89 -15z" />
    <glyph glyph-name="scaron" unicode="&#x161;" horiz-adv-x="883" 
d="M526 499q108 -16 175.5 -36t115.5 -71.5t48 -146.5q0 -273 -425 -273q-223 0 -326.5 73t-98.5 236h249q2 -45 44 -69t132 -24q74 0 112 19t38 49q0 24 -20.5 41.5t-76.5 25.5l-108 17l-24 4q-104 16 -169 36.5t-111 72.5t-46 147q0 106 71.5 173t210.5 87h-38l-132 175
h229l42 -49h56l42 49h229l-132 -175h-47q135 -19 206.5 -89.5t68.5 -209.5h-247q-16 91 -163 91q-66 0 -98 -18t-32 -48q0 -22 17.5 -39t61.5 -24l89 -15z" />
    <glyph glyph-name="uni0162" unicode="&#x162;" horiz-adv-x="941" 
d="M911 609h-302v-609h-277v609h-302v231h881v-231zM577.5 -66.5q34.5 -29.5 34.5 -82.5q0 -61 -49 -94t-127 -33q-40 0 -82 9v105q36 -7 62 -7q24 0 36.5 5t12.5 11q0 8 -14 15.5t-40 7.5t-57 -8v66l94 72h93l-45 -34q47 -3 81.5 -32.5z" />
    <glyph glyph-name="uni0163" unicode="&#x163;" horiz-adv-x="941" 
d="M911 609h-302v-609h-277v609h-302v231h881v-231zM577.5 -66.5q34.5 -29.5 34.5 -82.5q0 -61 -49 -94t-127 -33q-40 0 -82 9v105q36 -7 62 -7q24 0 36.5 5t12.5 11q0 8 -14 15.5t-40 7.5t-57 -8v66l94 72h93l-45 -34q47 -3 81.5 -32.5z" />
    <glyph glyph-name="Tcaron" unicode="&#x164;" horiz-adv-x="941" 
d="M911 609h-302v-609h-277v609h-302v231h881v-231zM403 1035l42 -49h56l42 49h229l-132 -175h-334l-132 175h229z" />
    <glyph glyph-name="tcaron" unicode="&#x165;" horiz-adv-x="941" 
d="M911 609h-302v-609h-277v609h-302v231h881v-231zM403 1035l42 -49h56l42 49h229l-132 -175h-334l-132 175h229z" />
    <glyph glyph-name="Tbar" unicode="&#x166;" horiz-adv-x="941" 
d="M609 609v-132h220v-201h-220v-276h-277v276h-217v201h217v132h-302v231h881v-231h-302z" />
    <glyph glyph-name="tbar" unicode="&#x167;" horiz-adv-x="941" 
d="M609 609v-132h220v-201h-220v-276h-277v276h-217v201h217v132h-302v231h881v-231h-302z" />
    <glyph glyph-name="Umacron" unicode="&#x16a;" horiz-adv-x="940" 
d="M143 68q-108 96 -108 298v474h279v-467q0 -81 38 -125t118 -44t119 44t39 125v467h277v-472q0 -203 -108 -299.5t-327 -96.5t-327 96zM240 1095h460v-201h-460v201z" />
    <glyph glyph-name="umacron" unicode="&#x16b;" horiz-adv-x="940" 
d="M143 68q-108 96 -108 298v474h279v-467q0 -81 38 -125t118 -44t119 44t39 125v467h277v-472q0 -203 -108 -299.5t-327 -96.5t-327 96zM240 1095h460v-201h-460v201z" />
    <glyph glyph-name="Ubreve" unicode="&#x16c;" horiz-adv-x="940" 
d="M143 68q-108 96 -108 298v474h279v-467q0 -81 38 -125t118 -44t119 44t39 125v467h277v-472q0 -203 -108 -299.5t-327 -96.5t-327 96zM330.5 906.5q-50.5 16.5 -72.5 54.5t-20 104h166q-1 -31 16.5 -47t49.5 -16t49.5 16t16.5 47h166q2 -66 -20 -104t-72.5 -54.5
t-139.5 -16.5t-139.5 16.5z" />
    <glyph glyph-name="ubreve" unicode="&#x16d;" horiz-adv-x="940" 
d="M143 68q-108 96 -108 298v474h279v-467q0 -81 38 -125t118 -44t119 44t39 125v467h277v-472q0 -203 -108 -299.5t-327 -96.5t-327 96zM330.5 906.5q-50.5 16.5 -72.5 54.5t-20 104h166q-1 -31 16.5 -47t49.5 -16t49.5 16t16.5 47h166q2 -66 -20 -104t-72.5 -54.5
t-139.5 -16.5t-139.5 16.5z" />
    <glyph glyph-name="Uring" unicode="&#x16e;" horiz-adv-x="940" 
d="M143 68q-108 96 -108 298v474h279v-467q0 -81 38 -125t118 -44t119 44t39 125v467h277v-472q0 -203 -108 -299.5t-327 -96.5t-327 96zM397.5 844q-32.5 19 -51.5 51.5t-19 70.5q0 39 19 72t51.5 52t72.5 19t72 -19t50.5 -52t18.5 -72q0 -38 -18.5 -70.5t-50.5 -51.5
t-72 -19t-72.5 19zM491.5 945q8.5 7 8.5 19q0 34 -30 34q-13 0 -21.5 -8t-8.5 -22q0 -15 8 -22.5t22 -7.5q13 0 21.5 7z" />
    <glyph glyph-name="uring" unicode="&#x16f;" horiz-adv-x="940" 
d="M143 68q-108 96 -108 298v474h279v-467q0 -81 38 -125t118 -44t119 44t39 125v467h277v-472q0 -203 -108 -299.5t-327 -96.5t-327 96zM397.5 844q-32.5 19 -51.5 51.5t-19 70.5q0 39 19 72t51.5 52t72.5 19t72 -19t50.5 -52t18.5 -72q0 -38 -18.5 -70.5t-50.5 -51.5
t-72 -19t-72.5 19zM491.5 945q8.5 7 8.5 19q0 34 -30 34q-13 0 -21.5 -8t-8.5 -22q0 -15 8 -22.5t22 -7.5q13 0 21.5 7z" />
    <glyph glyph-name="Uhungarumlaut" unicode="&#x170;" horiz-adv-x="940" 
d="M143 68q-108 96 -108 298v474h279v-467q0 -81 38 -125t118 -44t119 44t39 125v467h277v-472q0 -203 -108 -299.5t-327 -96.5t-327 96zM539 1071h245l-72 -175h-245zM252 1071h245l-72 -175h-245z" />
    <glyph glyph-name="uhungarumlaut" unicode="&#x171;" horiz-adv-x="940" 
d="M143 68q-108 96 -108 298v474h279v-467q0 -81 38 -125t118 -44t119 44t39 125v467h277v-472q0 -203 -108 -299.5t-327 -96.5t-327 96zM539 1071h245l-72 -175h-245zM252 1071h245l-72 -175h-245z" />
    <glyph glyph-name="Uogonek" unicode="&#x172;" horiz-adv-x="940" 
d="M905 840v-472q0 -176 -81.5 -272t-246.5 -118q-53 -4 -75 -13.5t-22 -24.5q0 -11 10 -22.5t41 -10.5v-150q-90 0 -162.5 34.5t-72.5 116.5q0 48 30 76q-146 29 -218.5 123t-72.5 259v474h279v-467q0 -81 38 -125t118 -44t119 44t39 125v467h277z" />
    <glyph glyph-name="uogonek" unicode="&#x173;" horiz-adv-x="940" 
d="M905 840v-472q0 -176 -81.5 -272t-246.5 -118q-53 -4 -75 -13.5t-22 -24.5q0 -11 10 -22.5t41 -10.5v-150q-90 0 -162.5 34.5t-72.5 116.5q0 48 30 76q-146 29 -218.5 123t-72.5 259v474h279v-467q0 -81 38 -125t118 -44t119 44t39 125v467h277z" />
    <glyph glyph-name="Wcircumflex" unicode="&#x174;" horiz-adv-x="1290" 
d="M20 840h281l90 -544h24l120 544h220l120 -544h24l90 544h281l-163 -840h-374l-76 404h-24l-76 -404h-374zM479 1065h334l132 -175h-229l-42 49h-56l-42 -49h-229z" />
    <glyph glyph-name="wcircumflex" unicode="&#x175;" horiz-adv-x="1290" 
d="M20 840h281l90 -544h24l120 544h220l120 -544h24l90 544h281l-163 -840h-374l-76 404h-24l-76 -404h-374zM479 1065h334l132 -175h-229l-42 49h-56l-42 -49h-229z" />
    <glyph glyph-name="Ycircumflex" unicode="&#x176;" horiz-adv-x="964" 
d="M620 261v-261h-277v262l-343 578h291l180 -316h22l180 316h291zM315 1065h334l132 -175h-229l-42 49h-56l-42 -49h-229z" />
    <glyph glyph-name="ycircumflex" unicode="&#x177;" horiz-adv-x="964" 
d="M620 261v-261h-277v262l-343 578h291l180 -316h22l180 316h291zM315 1065h334l132 -175h-229l-42 49h-56l-42 -49h-229z" />
    <glyph glyph-name="Ydieresis" unicode="&#x178;" horiz-adv-x="964" 
d="M620 261v-261h-277v262l-343 578h291l180 -316h22l180 316h291zM257.5 920.5q-29.5 27.5 -29.5 68.5t29.5 68.5t71.5 27.5t71.5 -27.5t29.5 -68.5t-29.5 -68.5t-71.5 -27.5t-71.5 27.5zM562.5 920.5q-29.5 27.5 -29.5 68.5t29.5 68.5t71.5 27.5t71.5 -27.5t29.5 -68.5
t-29.5 -68.5t-71.5 -27.5t-71.5 27.5z" />
    <glyph glyph-name="Zacute" unicode="&#x179;" horiz-adv-x="830" 
d="M20 223l430 365v21h-420v231h780v-223l-436 -365v-21h430v-231h-784v223zM362 1065h245l-72 -175h-245z" />
    <glyph glyph-name="zacute" unicode="&#x17a;" horiz-adv-x="830" 
d="M20 223l430 365v21h-420v231h780v-223l-436 -365v-21h430v-231h-784v223zM362 1065h245l-72 -175h-245z" />
    <glyph glyph-name="Zdotaccent" unicode="&#x17b;" horiz-adv-x="830" 
d="M20 223l430 365v21h-420v231h780v-223l-436 -365v-21h430v-231h-784v223zM342.5 920.5q-29.5 27.5 -29.5 68.5t29.5 68.5t71.5 27.5t71.5 -27.5t29.5 -68.5t-29.5 -68.5t-71.5 -27.5t-71.5 27.5z" />
    <glyph glyph-name="zdotaccent" unicode="&#x17c;" horiz-adv-x="830" 
d="M20 223l430 365v21h-420v231h780v-223l-436 -365v-21h430v-231h-784v223zM342.5 920.5q-29.5 27.5 -29.5 68.5t29.5 68.5t71.5 27.5t71.5 -27.5t29.5 -68.5t-29.5 -68.5t-71.5 -27.5t-71.5 27.5z" />
    <glyph glyph-name="Zcaron" unicode="&#x17d;" horiz-adv-x="830" 
d="M20 223l430 365v21h-420v231h780v-223l-436 -365v-21h430v-231h-784v223zM346 1035l42 -49h56l42 49h229l-132 -175h-334l-132 175h229z" />
    <glyph glyph-name="zcaron" unicode="&#x17e;" horiz-adv-x="830" 
d="M20 223l430 365v21h-420v231h780v-223l-436 -365v-21h430v-231h-784v223zM346 1035l42 -49h56l42 49h229l-132 -175h-334l-132 175h229z" />
    <glyph glyph-name="florin" unicode="&#x192;" horiz-adv-x="767" 
d="M537.5 655.5q-27.5 -20.5 -27.5 -63.5v-34h217v-211h-217v-105q0 -130 -79.5 -194t-204.5 -64q-52 0 -103 9.5t-83 28.5v200q55 -21 120 -21q42 0 69.5 20.5t27.5 63.5v62h-217v211h217v77q0 130 79.5 194t204.5 64q52 0 103 -9.5t83 -28.5v-200q-55 21 -120 21
q-42 0 -69.5 -20.5z" />
    <glyph glyph-name="uni01CD" unicode="&#x1cd;" 
d="M688 111h-360l-37 -111h-286l309 840h388l309 -840h-286zM620 316l-88 264h-48l-88 -264h224zM440 1035l42 -49h56l42 49h229l-132 -175h-334l-132 175h229z" />
    <glyph glyph-name="uni01CE" unicode="&#x1ce;" 
d="M688 111h-360l-37 -111h-286l309 840h388l309 -840h-286zM620 316l-88 264h-48l-88 -264h224zM440 1035l42 -49h56l42 49h229l-132 -175h-334l-132 175h229z" />
    <glyph glyph-name="uni01CF" unicode="&#x1cf;" horiz-adv-x="347" 
d="M35 840h277v-840h-277v840zM105 1035l42 -49h56l42 49h229l-132 -175h-334l-132 175h229z" />
    <glyph glyph-name="uni01D0" unicode="&#x1d0;" horiz-adv-x="347" 
d="M35 840h277v-840h-277v840zM105 1035l42 -49h56l42 49h229l-132 -175h-334l-132 175h229z" />
    <glyph glyph-name="uni01D1" unicode="&#x1d1;" horiz-adv-x="992" 
d="M783 791.5q91 -58.5 140 -154t49 -217.5q0 -133 -58.5 -234.5t-166.5 -157.5t-251 -56t-251 56t-166.5 157.5t-58.5 234.5q0 122 49 217.5t140 154t214 72.5h-92l-132 175h229l42 -49h56l42 49h229l-132 -175h-96q123 -14 214 -72.5zM597.5 236q45.5 25 72.5 72t27 112
t-27 112t-72.5 72t-101.5 25t-101.5 -25t-72.5 -72t-27 -112t27 -112t72.5 -72t101.5 -25t101.5 25z" />
    <glyph glyph-name="uni01D2" unicode="&#x1d2;" horiz-adv-x="992" 
d="M783 791.5q91 -58.5 140 -154t49 -217.5q0 -133 -58.5 -234.5t-166.5 -157.5t-251 -56t-251 56t-166.5 157.5t-58.5 234.5q0 122 49 217.5t140 154t214 72.5h-92l-132 175h229l42 -49h56l42 49h229l-132 -175h-96q123 -14 214 -72.5zM597.5 236q45.5 25 72.5 72t27 112
t-27 112t-72.5 72t-101.5 25t-101.5 -25t-72.5 -72t-27 -112t27 -112t72.5 -72t101.5 -25t101.5 25z" />
    <glyph glyph-name="uni01D3" unicode="&#x1d3;" horiz-adv-x="940" 
d="M143 68q-108 96 -108 298v474h279v-467q0 -81 38 -125t118 -44t119 44t39 125v467h277v-472q0 -203 -108 -299.5t-327 -96.5t-327 96zM402 1035l42 -49h56l42 49h229l-132 -175h-334l-132 175h229z" />
    <glyph glyph-name="uni01D4" unicode="&#x1d4;" horiz-adv-x="940" 
d="M143 68q-108 96 -108 298v474h279v-467q0 -81 38 -125t118 -44t119 44t39 125v467h277v-472q0 -203 -108 -299.5t-327 -96.5t-327 96zM402 1035l42 -49h56l42 49h229l-132 -175h-334l-132 175h229z" />
    <glyph glyph-name="uni01EA" unicode="&#x1ea;" horiz-adv-x="992" 
d="M926 209.5q-46 -93.5 -131 -153t-200 -77.5q-10 -10 -10 -27q0 -44 51 -43v-150q-90 0 -162.5 35t-72.5 119q0 37 15 64q-121 15 -210 74t-137.5 154t-48.5 215q0 133 58.5 234.5t166.5 157.5t251 56t251 -56t166.5 -157.5t58.5 -234.5q0 -117 -46 -210.5zM322 308
q27 -47 72.5 -72t101.5 -25t101.5 25t72.5 72t27 112t-27 112t-72.5 72t-101.5 25t-101.5 -25t-72.5 -72t-27 -112t27 -112z" />
    <glyph glyph-name="Scommaaccent" unicode="&#x218;" horiz-adv-x="883" 
d="M113.5 45q-103.5 73 -98.5 236h249q2 -45 44 -69t132 -24q74 0 112 19t38 49q0 24 -20.5 41.5t-76.5 25.5l-108 17l-24 4q-104 16 -169 36.5t-111 72.5t-46 147q0 127 102.5 197.5t299.5 70.5t302.5 -69t101.5 -238h-247q-16 91 -163 91q-66 0 -98 -18t-32 -48
q0 -22 17.5 -39t61.5 -24l89 -15l57 -9q108 -16 175.5 -36t115.5 -71.5t48 -146.5q0 -273 -425 -273q-223 0 -326.5 73zM399 -265h-94v199h281v-44q0 -136 -16 -230t-36 -130h-146q13 95 11 205z" />
    <glyph glyph-name="scommaaccent" unicode="&#x219;" horiz-adv-x="883" 
d="M113.5 45q-103.5 73 -98.5 236h249q2 -45 44 -69t132 -24q74 0 112 19t38 49q0 24 -20.5 41.5t-76.5 25.5l-108 17l-24 4q-104 16 -169 36.5t-111 72.5t-46 147q0 127 102.5 197.5t299.5 70.5t302.5 -69t101.5 -238h-247q-16 91 -163 91q-66 0 -98 -18t-32 -48
q0 -22 17.5 -39t61.5 -24l89 -15l57 -9q108 -16 175.5 -36t115.5 -71.5t48 -146.5q0 -273 -425 -273q-223 0 -326.5 73zM399 -265h-94v199h281v-44q0 -136 -16 -230t-36 -130h-146q13 95 11 205z" />
    <glyph glyph-name="uni021A" unicode="&#x21a;" horiz-adv-x="941" 
d="M911 609h-302v-609h-277v609h-302v231h881v-231zM426 -265h-94v199h281v-44q0 -136 -16 -230t-36 -130h-146q13 95 11 205z" />
    <glyph glyph-name="uni021B" unicode="&#x21b;" horiz-adv-x="941" 
d="M911 609h-302v-609h-277v609h-302v231h881v-231zM426 -265h-94v199h281v-44q0 -136 -16 -230t-36 -130h-146q13 95 11 205z" />
    <glyph glyph-name="circumflex" unicode="&#x2c6;" horiz-adv-x="598" 
d="M132 855h334l132 -175h-229l-42 49h-56l-42 -49h-229z" />
    <glyph glyph-name="caron" unicode="&#x2c7;" horiz-adv-x="598" 
d="M229 825l42 -49h56l42 49h229l-132 -175h-334l-132 175h229z" />
    <glyph glyph-name="breve" unicode="&#x2d8;" horiz-adv-x="464" 
d="M92.5 696.5q-50.5 16.5 -72.5 54.5t-20 104h166q-1 -31 16.5 -47t49.5 -16t49.5 16t16.5 47h166q2 -66 -20 -104t-72.5 -54.5t-139.5 -16.5t-139.5 16.5z" />
    <glyph glyph-name="dotaccent" unicode="&#x2d9;" horiz-adv-x="202" 
d="M29.5 710.5q-29.5 27.5 -29.5 68.5t29.5 68.5t71.5 27.5t71.5 -27.5t29.5 -68.5t-29.5 -68.5t-71.5 -27.5t-71.5 27.5z" />
    <glyph glyph-name="ring" unicode="&#x2da;" horiz-adv-x="284" 
d="M70.5 634q-32.5 19 -51.5 51.5t-19 70.5q0 39 19 72t51.5 52t72.5 19t72 -19t50.5 -52t18.5 -72q0 -38 -18.5 -70.5t-50.5 -51.5t-72 -19t-72.5 19zM164.5 735q8.5 7 8.5 19q0 34 -30 34q-13 0 -21.5 -8t-8.5 -22q0 -15 8 -22.5t22 -7.5q13 0 21.5 7z" />
    <glyph glyph-name="ogonek" unicode="&#x2db;" horiz-adv-x="262" 
d="M72.5 -208q-72.5 35 -72.5 119q0 96 83.5 127t178.5 31v-69q-43 0 -60.5 -15t-17.5 -35q0 -44 51 -43v-150q-90 0 -162.5 35z" />
    <glyph glyph-name="tilde" unicode="&#x2dc;" horiz-adv-x="492" 
d="M282.5 686q-23.5 8 -56.5 23q-28 14 -47 20.5t-40 6.5q-27 0 -43.5 -12.5t-18.5 -35.5h-75q-3 18 -3 33q0 70 46.5 106t111.5 36q28 0 51.5 -8t56.5 -23q30 -14 48.5 -20.5t39.5 -6.5q27 0 43.5 12.5t18.5 35.5h75q3 -18 3 -33q0 -70 -46.5 -106t-111.5 -36
q-29 0 -52.5 8z" />
    <glyph glyph-name="hungarumlaut" unicode="&#x2dd;" horiz-adv-x="580" 
d="M359 855h245l-72 -175h-245zM72 855h245l-72 -175h-245z" />
    <glyph glyph-name="uni0326" unicode="&#x326;" horiz-adv-x="0" 
d="M-195 -265h-94v199h281v-44q0 -136 -16 -230t-36 -130h-146q13 95 11 205z" />
    <glyph glyph-name="uni0394" unicode="&#x394;" 
d="M1011 0h-1006l309 840h388zM648 222l-125 358h-30l-125 -358h280z" />
    <glyph glyph-name="uni03A9" unicode="&#x3a9;" horiz-adv-x="954" 
d="M20 213h115v26q-50 46 -78.5 114.5t-28.5 146.5q0 103 54.5 186.5t156 132.5t238.5 49t238.5 -49t156 -132.5t54.5 -186.5q0 -78 -28.5 -146.5t-78.5 -114.5v-26h115v-213h-410v297q52 16 89 56.5t37 110.5q0 42 -21 80t-60 61.5t-92 23.5t-92 -23.5t-60 -61.5t-21 -80
q0 -70 37 -110.5t89 -56.5v-297h-410v213z" />
    <glyph glyph-name="uni03BC" unicode="&#x3bc;" horiz-adv-x="828" 
d="M793 680v-680h-272l-5 89h-26q-31 -47 -79 -72.5t-99 -30.5v-136h-277v830h277v-375q0 -58 31.5 -78t71.5 -20q46 0 73.5 26t27.5 61v386h277z" />
    <glyph glyph-name="pi" unicode="&#x3c0;" horiz-adv-x="990" 
d="M933 228q15 4 22 2v-189q-21 -26 -65 -37.5t-95 -11.5q-104 0 -163.5 50t-59.5 171v271h-176v-484h-277v484h-84v196h897v-196h-83v-216q0 -44 53 -44q13 0 31 4z" />
    <glyph glyph-name="Wgrave" unicode="&#x1e80;" horiz-adv-x="1290" 
d="M20 840h281l90 -544h24l120 544h220l120 -544h24l90 544h281l-163 -840h-374l-76 404h-24l-76 -404h-374zM526 890l-72 175h245l72 -175h-245z" />
    <glyph glyph-name="wgrave" unicode="&#x1e81;" horiz-adv-x="1290" 
d="M20 840h281l90 -544h24l120 544h220l120 -544h24l90 544h281l-163 -840h-374l-76 404h-24l-76 -404h-374zM526 890l-72 175h245l72 -175h-245z" />
    <glyph glyph-name="Wacute" unicode="&#x1e82;" horiz-adv-x="1290" 
d="M20 840h281l90 -544h24l120 544h220l120 -544h24l90 544h281l-163 -840h-374l-76 404h-24l-76 -404h-374zM594 1065h245l-72 -175h-245z" />
    <glyph glyph-name="wacute" unicode="&#x1e83;" horiz-adv-x="1290" 
d="M20 840h281l90 -544h24l120 544h220l120 -544h24l90 544h281l-163 -840h-374l-76 404h-24l-76 -404h-374zM594 1065h245l-72 -175h-245z" />
    <glyph glyph-name="Wdieresis" unicode="&#x1e84;" horiz-adv-x="1290" 
d="M20 840h281l90 -544h24l120 544h220l120 -544h24l90 544h281l-163 -840h-374l-76 404h-24l-76 -404h-374zM421.5 920.5q-29.5 27.5 -29.5 68.5t29.5 68.5t71.5 27.5t71.5 -27.5t29.5 -68.5t-29.5 -68.5t-71.5 -27.5t-71.5 27.5zM726.5 920.5q-29.5 27.5 -29.5 68.5
t29.5 68.5t71.5 27.5t71.5 -27.5t29.5 -68.5t-29.5 -68.5t-71.5 -27.5t-71.5 27.5z" />
    <glyph glyph-name="wdieresis" unicode="&#x1e85;" horiz-adv-x="1290" 
d="M20 840h281l90 -544h24l120 544h220l120 -544h24l90 544h281l-163 -840h-374l-76 404h-24l-76 -404h-374zM421.5 920.5q-29.5 27.5 -29.5 68.5t29.5 68.5t71.5 27.5t71.5 -27.5t29.5 -68.5t-29.5 -68.5t-71.5 -27.5t-71.5 27.5zM726.5 920.5q-29.5 27.5 -29.5 68.5
t29.5 68.5t71.5 27.5t71.5 -27.5t29.5 -68.5t-29.5 -68.5t-71.5 -27.5t-71.5 27.5z" />
    <glyph glyph-name="uni1E9E" unicode="&#x1e9e;" horiz-adv-x="1009" 
d="M871 467q58 -37 88 -98t30 -128q0 -127 -83 -195t-233 -68q-170 0 -242 64t-72 187h226q3 -34 30 -51.5t54 -17.5q34 0 59 20.5t25 60.5q0 37 -24.5 60t-59.5 23q-40 0 -65 -25h-224l180 310h-152q-44 0 -68 -24t-24 -79v-506h-281v566q0 108 35 168t102.5 83t176.5 23
h598l-214 -337q80 1 138 -36z" />
    <glyph glyph-name="Ygrave" unicode="&#x1ef2;" horiz-adv-x="964" 
d="M620 261v-261h-277v262l-343 578h291l180 -316h22l180 316h291zM362 890l-72 175h245l72 -175h-245z" />
    <glyph glyph-name="ygrave" unicode="&#x1ef3;" horiz-adv-x="964" 
d="M620 261v-261h-277v262l-343 578h291l180 -316h22l180 316h291zM362 890l-72 175h245l72 -175h-245z" />
    <glyph glyph-name="endash" unicode="&#x2013;" horiz-adv-x="900" 
d="M40 517h820v-231h-820v231z" />
    <glyph glyph-name="emdash" unicode="&#x2014;" horiz-adv-x="980" 
d="M40 517h900v-231h-900v231z" />
    <glyph glyph-name="quoteleft" unicode="&#x2018;" horiz-adv-x="386" 
d="M247 602h109v-231h-326v51q0 157 18.5 266t41.5 152h170q-15 -105 -13 -238z" />
    <glyph glyph-name="quoteright" unicode="&#x2019;" horiz-adv-x="386" 
d="M139 609h-109v231h326v-51q0 -157 -18.5 -266t-41.5 -152h-170q15 105 13 238z" />
    <glyph glyph-name="quotesinglbase" unicode="&#x201a;" horiz-adv-x="386" 
d="M139 0h-109v231h326v-51q0 -157 -18.5 -266t-41.5 -152h-170q15 105 13 238z" />
    <glyph glyph-name="quotedblleft" unicode="&#x201c;" horiz-adv-x="690" 
d="M226 602h97v-231h-289v51q0 157 16.5 266t36.5 152h151q-12 -92 -12 -238zM562 602h97v-231h-289v51q0 157 16.5 266t36.5 152h151q-12 -92 -12 -238z" />
    <glyph glyph-name="quotedblright" unicode="&#x201d;" horiz-adv-x="690" 
d="M128 609h-97v231h289v-51q0 -157 -16.5 -266t-36.5 -152h-151q12 92 12 238zM464 609h-97v231h289v-51q0 -157 -16.5 -266t-36.5 -152h-151q12 92 12 238z" />
    <glyph glyph-name="quotedblbase" unicode="&#x201e;" horiz-adv-x="690" 
d="M128 -37h-97v231h289v-51q0 -157 -16.5 -266t-36.5 -152h-151q12 92 12 238zM464 -37h-97v231h289v-51q0 -157 -16.5 -266t-36.5 -152h-151q12 92 12 238z" />
    <glyph glyph-name="dagger" unicode="&#x2020;" horiz-adv-x="808" 
d="M758 478h-239v-238h-231v238h-238v219h238v239h231v-239h239v-219z" />
    <glyph glyph-name="daggerdbl" unicode="&#x2021;" horiz-adv-x="808" 
d="M519 478v-207h239v-219h-239v-238h-231v238h-238v219h238v207h-238v219h238v239h231v-239h239v-219h-239z" />
    <glyph glyph-name="bullet" unicode="&#x2022;" horiz-adv-x="620" 
d="M205.5 237.5q-48.5 28.5 -77 77t-28.5 105.5t28.5 105.5t77 77t104.5 28.5t104.5 -28.5t77 -77t28.5 -105.5t-28.5 -105.5t-77 -77t-104.5 -28.5t-104.5 28.5z" />
    <glyph glyph-name="ellipsis" unicode="&#x2026;" horiz-adv-x="1064" 
d="M104.5 2.5q-31.5 18.5 -50.5 50t-19 67.5t19 67.5t50.5 50t68.5 18.5t68.5 -18.5t50.5 -50t19 -67.5t-19 -67.5t-50.5 -50t-68.5 -18.5t-68.5 18.5zM463.5 2.5q-31.5 18.5 -50.5 50t-19 67.5t19 67.5t50.5 50t68.5 18.5t68.5 -18.5t50.5 -50t19 -67.5t-19 -67.5
t-50.5 -50t-68.5 -18.5t-68.5 18.5zM822.5 2.5q-31.5 18.5 -50.5 50t-19 67.5t19 67.5t50.5 50t68.5 18.5t68.5 -18.5t50.5 -50t19 -67.5t-19 -67.5t-50.5 -50t-68.5 -18.5t-68.5 18.5z" />
    <glyph glyph-name="perthousand" unicode="&#x2030;" horiz-adv-x="1661" 
d="M254 49l542 825l116 -78l-542 -825zM102 468q-57 63 -57 161q0 97 57 160t171 63t171 -63t57 -160q0 -98 -57 -161t-171 -63t-171 63zM313.5 591q13.5 16 13.5 38t-13.5 37.5t-40.5 15.5t-40.5 -15.5t-13.5 -37.5t13.5 -38t40.5 -16t40.5 16zM721 51q-57 63 -57 161
q0 97 57 160t171 63t171 -63t57 -160q0 -98 -57 -161t-171 -63t-171 63zM1216 51q-57 63 -57 161q0 97 57 160t171 63t171 -63t57 -160q0 -98 -57 -161t-171 -63t-171 63zM932.5 174q13.5 16 13.5 38t-13.5 37.5t-40.5 15.5t-40.5 -15.5t-13.5 -37.5t13.5 -38t40.5 -16
t40.5 16zM1427.5 174q13.5 16 13.5 38t-13.5 37.5t-40.5 15.5t-40.5 -15.5t-13.5 -37.5t13.5 -38t40.5 -16t40.5 16z" />
    <glyph glyph-name="guilsinglleft" unicode="&#x2039;" horiz-adv-x="600" 
d="M254 120l-194 300l194 300h286l-194 -300l194 -300h-286z" />
    <glyph glyph-name="guilsinglright" unicode="&#x203a;" horiz-adv-x="600" 
d="M254 420l-194 300h286l194 -300l-194 -300h-286z" />
    <glyph glyph-name="Euro" unicode="&#x20ac;" horiz-adv-x="972" 
d="M640 245q44 34 60 103h251q-18 -199 -136 -287.5t-285 -88.5q-113 0 -204 40.5t-151.5 115.5t-82.5 176h-72v90h61q-1 9 -1 26v12h-60v89h69q20 106 79.5 184t152.5 120.5t209 42.5q106 0 196 -36t151.5 -119.5t73.5 -218.5h-251q-16 68 -60 101.5t-110 33.5
q-56 0 -100 -28.5t-67 -79.5h164v-89h-185v-12q0 -18 1 -26h184v-90h-157q25 -44 67 -68.5t93 -24.5q66 0 110 34z" />
    <glyph glyph-name="uni2116" unicode="&#x2116;" horiz-adv-x="1211" 
d="M835.5 410q-53.5 31 -84 84.5t-30.5 118.5q0 64 30.5 117.5t84 84.5t120.5 31t120.5 -31t84 -84.5t30.5 -117.5q0 -65 -30.5 -118.5t-84 -84.5t-120.5 -31t-120.5 31zM35 840h216l153 -365h24v365h242v-840h-216l-153 365h-24v-365h-242v840zM1001.5 568q17.5 18 17.5 45
t-17.5 44.5t-45.5 17.5q-27 0 -45 -17.5t-18 -44.5t17.5 -45t45.5 -18t45.5 18zM740 297h432v-219h-432v219z" />
    <glyph glyph-name="trademark" unicode="&#x2122;" horiz-adv-x="860" 
d="M830 840v-380h-117v215h-14l-31 -215h-118l-31 215h-14v-215h-117v273h-103v-273h-129v273h-126v107h528l42 -256h18l42 256h170z" />
    <glyph glyph-name="partialdiff" unicode="&#x2202;" horiz-adv-x="822" 
d="M689 758q113 -104 113 -334q0 -204 -89.5 -325t-309.5 -121q-125 0 -211 36t-129 101.5t-43 154.5q0 135 93.5 201.5t242.5 66.5q123 0 186 -34q3 86 -40 119t-109 33q-53 0 -90.5 -17.5t-45.5 -56.5h-220q-4 139 91.5 209.5t264.5 70.5q183 0 296 -104zM505.5 208.5
q34.5 26.5 34.5 68.5q0 45 -34 69t-100 24t-101.5 -25t-35.5 -68q0 -42 36 -68.5t101 -26.5t99.5 26.5z" />
    <glyph glyph-name="product" unicode="&#x220f;" horiz-adv-x="733" 
d="M698 900v-1050h-277v819h-109v-819h-277v1050h663z" />
    <glyph glyph-name="summation" unicode="&#x2211;" horiz-adv-x="718" 
d="M35 81l316 285l-316 303v231h648v-231h-344l304 -289v-28l-304 -271h344v-231h-648v231z" />
    <glyph glyph-name="minus" unicode="&#x2212;" horiz-adv-x="728" 
d="M50 536h628v-231h-628v231z" />
    <glyph glyph-name="radical" unicode="&#x221a;" horiz-adv-x="856" 
d="M174 263h-124v231h280l103 -385h16l137 791h220l-196 -1050h-325z" />
    <glyph glyph-name="infinity" unicode="&#x221e;" horiz-adv-x="864" 
d="M766.5 574q47.5 -61 47.5 -153q0 -96 -47 -156.5t-143 -60.5q-64 0 -107.5 29.5t-84.5 85.5q-41 -56 -84.5 -85.5t-106.5 -29.5q-96 0 -143.5 60.5t-47.5 156.5q0 92 47.5 153t143.5 61q63 0 106 -30t85 -86q42 57 85.5 86.5t106.5 29.5q95 0 142.5 -61zM309.5 374.5
q20.5 11.5 52.5 47.5q-33 34 -53.5 45.5t-41.5 11.5q-29 0 -42 -17.5t-13 -39.5q0 -25 13 -42t42 -17q22 0 42.5 11.5zM639 380q13 17 13 42q0 22 -13 39.5t-42 17.5q-21 0 -41 -11.5t-52 -45.5q32 -36 51.5 -47.5t41.5 -11.5q29 0 42 17z" />
    <glyph glyph-name="integral" unicode="&#x222b;" horiz-adv-x="807" 
d="M143 -140.5q-51 9.5 -83 28.5v200q55 -21 120 -21q42 0 69.5 20.5t27.5 63.5v484q0 130 79.5 194t204.5 64q52 0 103 -9.5t83 -28.5v-200q-55 21 -120 21q-42 0 -69.5 -20.5t-27.5 -63.5v-484q0 -130 -79.5 -194t-204.5 -64q-52 0 -103 9.5z" />
    <glyph glyph-name="approxequal" unicode="&#x2248;" horiz-adv-x="714" 
d="M402.5 186q-30.5 10 -70.5 29q-37 17 -60.5 25t-49.5 8q-34 0 -54 -16t-22 -44h-94q-3 23 -3 41q0 59 27.5 99t72.5 59.5t97 19.5q35 0 64.5 -9.5t71.5 -29.5q35 -17 59 -25t49 -9q34 2 54.5 17.5t23.5 42.5h94q3 -21 3 -41q0 -58 -28 -98t-73 -59.5t-96 -20.5
q-35 1 -65.5 11zM402.5 442q-30.5 10 -70.5 29q-37 17 -60.5 25t-49.5 8q-34 0 -54 -16t-22 -44h-94q-3 23 -3 41q0 59 27.5 99t72.5 59.5t97 19.5q35 0 64.5 -9.5t71.5 -29.5q35 -17 59 -25t49 -9q34 2 54.5 17.5t23.5 42.5h94q3 -21 3 -41q0 -58 -28 -98t-73 -59.5
t-96 -20.5q-35 1 -65.5 11z" />
    <glyph glyph-name="notequal" unicode="&#x2260;" horiz-adv-x="728" 
d="M613 678h65v-231h-168l-23 -53h191v-231h-294l-54 -122h-286l54 122h-48v231h151l23 53h-174v231h277l71 161h286z" />
    <glyph glyph-name="lessequal" unicode="&#x2264;" horiz-adv-x="728" 
d="M49 486v316l626 196v-237l-413 -104v-26l413 -104v-233zM50 231h628v-231h-628v231z" />
    <glyph glyph-name="greaterequal" unicode="&#x2265;" horiz-adv-x="767" 
d="M92 527l413 104v26l-413 104v237l626 -196v-316l-626 -192v233zM89 0v231h628v-231h-628z" />
    <glyph glyph-name="lozenge" unicode="&#x25ca;" horiz-adv-x="780" 
d="M230 13l-176 395q-4 10 -4 12t4 12l176 395q4 13 20 13h280q16 0 20 -13l176 -395q4 -7 4 -12t-4 -12l-176 -395q-4 -13 -20 -13h-280q-16 0 -20 13zM488 420l-98 226l-98 -226l98 -226z" />
    <glyph glyph-name="G.ss01" horiz-adv-x="977" 
d="M953 403q0 -136 -56 -233t-159 -147.5t-240 -50.5q-144 0 -252.5 56t-167 157.5t-58.5 234.5t59.5 234.5t167.5 157.5t251 56q107 0 201.5 -34.5t159 -107t80.5 -180.5h-275q-15 33 -56.5 58t-103.5 25q-60 0 -107.5 -26t-74.5 -73.5t-27 -109.5q0 -95 55.5 -152
t147.5 -57q57 0 108.5 22.5t70.5 86.5h-190v144h463q3 -31 3 -61z" />
    <glyph glyph-name="i.loclTRK" horiz-adv-x="347" 
d="M35 840h277v-840h-277v840zM101.5 920.5q-29.5 27.5 -29.5 68.5t29.5 68.5t71.5 27.5t71.5 -27.5t29.5 -68.5t-29.5 -68.5t-71.5 -27.5t-71.5 27.5z" />
    <glyph glyph-name="g.ss01" horiz-adv-x="977" 
d="M953 403q0 -136 -56 -233t-159 -147.5t-240 -50.5q-144 0 -252.5 56t-167 157.5t-58.5 234.5t59.5 234.5t167.5 157.5t251 56q107 0 201.5 -34.5t159 -107t80.5 -180.5h-275q-15 33 -56.5 58t-103.5 25q-60 0 -107.5 -26t-74.5 -73.5t-27 -109.5q0 -95 55.5 -152
t147.5 -57q57 0 108.5 22.5t70.5 86.5h-190v144h463q3 -31 3 -61z" />
    </font>
</defs>
</svg>
